<?xml version="1.0"?>
<svg xmlns="http://www.w3.org/2000/svg" width="158" height="33" viewBox="0 0 158 33" fill="none" style="background-color:transparent;">
  <path d="M10.6818 14.7542C10.1981 14.7542 9.71441 14.7542 9.23071 14.7542C9.02392 14.7542 8.82062 14.726 8.63485 14.8773C8.53671 14.9547 8.42104 14.8773 8.33692 14.7894C8.2528 14.7014 8.23528 14.5959 8.28435 14.4938C8.34043 14.3777 8.45609 14.2898 8.57176 14.3355C9.13958 14.5607 9.72844 14.3953 10.3068 14.441C10.5276 14.4586 10.7554 14.4516 10.9762 14.441C11.1305 14.434 11.2391 14.4938 11.3443 14.5994C11.7088 14.9723 12.0838 15.3347 12.4519 15.7112C12.536 15.7957 12.6166 15.8308 12.7323 15.8308C13.1494 15.8238 13.563 15.8308 13.9801 15.8273C14.0397 15.8273 14.1238 15.859 14.1553 15.7992C14.1974 15.7182 14.1028 15.676 14.0607 15.6303C13.2685 14.8281 12.4729 14.0294 11.6737 13.2342C11.2496 12.812 10.822 12.3968 10.3979 11.9746C10.3348 11.9113 10.2647 11.8867 10.1771 11.8867C9.41648 11.8867 8.65588 11.8867 7.89529 11.8867C7.82869 11.8867 7.7656 11.8937 7.699 11.9359C7.55179 12.0309 7.30643 11.9746 7.19778 11.8444C7.06809 11.6861 7.07159 11.5102 7.21881 11.3518C7.34148 11.2217 7.4922 11.1302 7.699 11.2815C7.80766 11.3624 7.91632 11.3694 8.03899 11.3694C8.78207 11.3694 9.52163 11.373 10.2647 11.3659C10.44 11.3659 10.5696 11.4257 10.6818 11.5418C11.5055 12.3687 12.3292 13.2026 13.1564 14.0294C14.3832 15.2573 15.6134 16.4817 16.8367 17.7132C16.9243 17.8012 17.0084 17.8434 17.1311 17.8364C17.3029 17.8293 17.4781 17.8258 17.6499 17.8364C17.7901 17.8434 17.8462 17.8082 17.8532 17.6464C17.8637 17.4141 17.7971 17.2488 17.6253 17.0904C17.2713 16.7597 16.9348 16.4079 16.5949 16.0666C16.5423 16.0138 16.4827 15.9821 16.4021 15.9716C16.2899 15.9505 16.1637 15.9223 16.1497 15.7675C16.1357 15.6127 16.1322 15.472 16.3215 15.4121C16.4827 15.3594 16.6019 15.4297 16.6474 15.567C16.7175 15.7816 16.8823 15.9118 17.026 16.0595C17.3379 16.3832 17.6569 16.7034 17.9899 17.0095C18.1511 17.1573 18.1581 17.3297 18.1546 17.5232C18.1476 17.8399 18.1546 17.8399 18.4666 17.8399C18.9222 17.8399 19.3744 17.8328 19.83 17.8399C19.9772 17.8399 20.0158 17.7977 20.0123 17.6534C20.0018 17.3121 20.0053 16.9743 20.0123 16.633C20.0123 16.4958 19.9772 16.443 19.83 16.4466C19.3709 16.4571 18.9082 16.4466 18.449 16.4536C18.3264 16.4536 18.2422 16.4149 18.1546 16.3269C17.4992 15.6655 16.8332 15.0075 16.1778 14.3461C16.0901 14.2581 16.0025 14.2194 15.8833 14.2229C15.4662 14.2264 15.0526 14.2229 14.6355 14.2264C14.5128 14.2264 14.4252 14.1877 14.3376 14.1033C13.7277 13.4875 13.1143 12.8753 12.5044 12.2631C12.4519 12.2104 12.4098 12.1541 12.3292 12.1365C12.1329 12.0907 12.0733 11.9922 12.0944 11.7952C12.1154 11.6333 12.217 11.5876 12.3607 11.5876C12.55 11.5876 12.6482 11.6826 12.6376 11.8691C12.6341 11.9535 12.6902 11.9992 12.7323 12.0415C13.3246 12.6396 13.9205 13.2307 14.5128 13.8288C14.5794 13.8957 14.6425 13.9168 14.7267 13.9168C15.0982 13.9168 15.4697 13.9168 15.8378 13.9168C15.9604 13.9168 16.02 13.8746 15.999 13.7479C15.999 13.7338 15.999 13.7233 15.999 13.7092C16.0551 13.3327 15.9184 13.0618 15.6345 12.7944C14.7652 11.9641 13.931 11.095 13.0863 10.24C13.0022 10.1556 12.9145 10.1345 12.8024 10.1345C11.6177 10.1345 10.4365 10.1345 9.25174 10.138C9.11855 10.138 9.02041 10.1063 8.92578 10.0008C8.733 9.78614 8.5262 9.58559 8.31589 9.38503C8.24579 9.31818 8.1827 9.2267 8.07404 9.21967C7.89879 9.20911 7.81116 9.08245 7.81817 8.94875C7.82518 8.82208 7.90229 8.68486 8.07404 8.66727C8.2528 8.64968 8.35445 8.75875 8.3895 8.90301C8.41754 9.01912 8.46661 9.09652 8.55073 9.16337C8.56826 9.17745 8.58578 9.19856 8.60331 9.21615C8.8066 9.4167 8.97485 9.69466 9.2167 9.79317C9.46556 9.89521 9.78451 9.82132 10.0719 9.82484C10.3734 9.82484 10.6713 9.82484 10.9727 9.82484C11.0148 9.82484 11.0674 9.84595 11.0919 9.79317C11.1129 9.74392 11.0639 9.72633 11.0393 9.7017C10.6468 9.30411 10.2507 8.90652 9.85462 8.50542C9.79853 8.44913 9.72843 8.43505 9.64782 8.43505C9.30783 8.43505 8.97134 8.44209 8.63135 8.43505C8.51568 8.43505 8.43507 8.48783 8.35445 8.54061C8.22476 8.62505 8.12662 8.57579 8.03198 8.49135C7.93034 8.39987 7.91982 8.27672 7.9724 8.16061C8.02147 8.05154 8.15115 7.97413 8.2493 8.01636C8.74 8.23098 9.25174 8.08673 9.74946 8.12191C9.86863 8.13247 9.95977 8.1571 10.0439 8.24858C10.5206 8.73412 11.0078 9.20911 11.4845 9.69466C11.5721 9.78262 11.6527 9.82484 11.7789 9.82484C12.1609 9.8178 12.5465 9.82484 12.9286 9.82132C13.0547 9.82132 13.1459 9.85651 13.2335 9.94447C13.4718 10.1872 13.7137 10.43 13.959 10.6658C13.9906 10.6974 14.0151 10.7819 14.0922 10.7361C14.1448 10.7045 14.1448 10.6517 14.1448 10.6024C14.1448 10.2295 14.1448 9.85651 14.1448 9.48707C14.1448 9.39207 14.0992 9.32522 14.0327 9.25837C13.6261 8.85375 13.2195 8.44561 12.8199 8.03747C12.7638 7.98117 12.7042 7.97765 12.6411 7.95654C12.529 7.92136 12.4133 7.87562 12.3958 7.73136C12.3783 7.59766 12.3923 7.48507 12.5325 7.40766C12.6937 7.32322 12.9005 7.40415 12.9286 7.59414C12.9426 7.69266 12.9881 7.75247 13.0512 7.81229C13.4683 8.22746 13.8854 8.64264 14.3025 9.05782C14.4042 9.15985 14.4568 9.27596 14.4568 9.42726C14.4498 9.94799 14.4568 10.4687 14.4533 10.9859C14.4533 11.1091 14.4883 11.197 14.5759 11.285C15.1087 11.8163 15.6345 12.3546 16.1707 12.8859C16.2724 12.9844 16.3109 13.0829 16.3074 13.2201C16.3004 13.4137 16.3144 13.6072 16.3039 13.7972C16.2934 13.9555 16.346 14.0646 16.4582 14.1772C17.075 14.7859 17.6849 15.3981 18.2948 16.0138C18.3754 16.0982 18.4525 16.1369 18.5717 16.1334C18.9888 16.1264 19.4024 16.1264 19.8195 16.1334C19.9527 16.1334 20.0123 16.1088 20.0123 15.9575C20.0123 15.5212 20.0158 15.5001 19.5812 15.5282C19.2692 15.5458 19.0414 15.4614 18.8416 15.2151C18.6628 14.9899 18.4385 14.7999 18.2317 14.5959C18.1581 14.5255 18.0775 14.4657 17.9723 14.4516C17.8111 14.4305 17.7726 14.3214 17.7726 14.1807C17.7726 14.0224 17.8847 13.9449 18.0144 13.9098C18.1476 13.8746 18.2878 13.9661 18.2983 14.0751C18.3299 14.3636 18.5822 14.4657 18.7259 14.6592C18.782 14.7331 18.8766 14.7753 18.9292 14.8492C19.1465 15.1588 19.434 15.282 19.802 15.2151C19.8686 15.201 19.9772 15.2608 19.9983 15.1588C20.0158 15.0673 20.0368 14.9688 19.9422 14.8809C19.6057 14.5607 19.2797 14.2264 18.9503 13.8957C17.6989 12.6396 16.4476 11.38 15.1963 10.1239C15.1087 10.0359 15.0842 9.94095 15.0842 9.82132C15.0877 8.88541 15.0842 7.94599 15.0877 7.01008C15.0877 6.85175 15.0456 6.79545 14.8844 6.79897C14.5128 6.80953 14.1413 6.79897 13.7733 6.80249C13.6506 6.80249 13.5595 6.76379 13.4753 6.67583C13.23 6.42602 12.9741 6.19028 12.7323 5.93695C12.6446 5.84547 12.5605 5.81381 12.4378 5.81381C11.7929 5.81733 11.1445 5.81733 10.4995 5.81381C10.3769 5.81381 10.2612 5.82436 10.1666 5.90529C10.0334 6.01788 9.9107 5.95455 9.81256 5.85955C9.69689 5.74696 9.70039 5.60622 9.81256 5.48659C9.90018 5.39159 10.0194 5.3353 10.142 5.41974C10.2717 5.5077 10.4119 5.5077 10.5591 5.5077C11.2356 5.5077 11.9156 5.5077 12.5921 5.5077C12.7077 5.5077 12.7919 5.54289 12.8725 5.62381C13.1003 5.86307 13.3351 6.0988 13.57 6.33454C13.6471 6.41194 13.7347 6.45416 13.8539 6.45065C14.1098 6.44361 14.3656 6.45065 14.6215 6.45768C14.6636 6.45768 14.6986 6.45768 14.7161 6.41546C14.7267 6.38028 14.6986 6.3662 14.6741 6.34157C14.0677 5.73288 13.4648 5.12067 12.8585 4.51198C12.8024 4.45569 12.7288 4.43106 12.6376 4.43106C11.9717 4.43809 11.3092 4.43809 10.6433 4.43106C10.5311 4.43106 10.454 4.49087 10.3664 4.53309C10.1911 4.61753 10.0229 4.58235 9.90018 4.42402C9.78101 4.27273 9.78452 4.08977 9.9107 3.93847C10.0159 3.80829 10.2612 3.74848 10.3909 3.85403C10.5171 3.95607 10.6468 3.9631 10.794 3.9631C11.4669 3.9631 12.1364 3.9631 12.8094 3.95958C12.9426 3.95958 13.0442 3.99477 13.1389 4.09328C13.91 4.87086 14.6846 5.64492 15.4592 6.41898C15.5398 6.4999 15.5679 6.59138 15.5679 6.70397C15.5644 7.66803 15.5679 8.62857 15.5644 9.59262C15.5644 9.72984 15.6064 9.8178 15.7046 9.91632C17.0821 11.2885 18.4525 12.6713 19.8265 14.047C19.8721 14.0927 19.9177 14.1772 19.9878 14.1455C20.0473 14.1174 20.0123 14.0294 20.0123 13.9661C20.0123 12.7839 20.0123 11.6052 20.0123 10.423C20.0123 10.2998 19.9807 10.2119 19.8896 10.1239C19.6057 9.85299 19.2973 9.59966 19.0659 9.29004C18.6348 8.71301 18.095 8.24506 17.6043 7.72784C17.5377 7.65747 17.5447 7.57655 17.5447 7.49563C17.5447 7.15434 17.5377 6.81657 17.5447 6.47528C17.5447 6.29935 17.4886 6.16565 17.359 6.04251C17.0786 5.77159 16.8087 5.49363 16.5388 5.21215C16.4652 5.13475 16.3881 5.11012 16.2899 5.11364C16.0025 5.11715 15.7151 5.11364 15.4277 5.11364C15.319 5.11364 15.2384 5.08197 15.1613 5.00456C14.5234 4.36069 13.8819 3.72033 13.2405 3.07645C13.1739 3.0096 13.1073 2.95331 12.9952 2.95683C12.8374 2.96738 12.7778 2.83368 12.7463 2.71757C12.7077 2.58739 12.8059 2.47832 12.911 2.43258C13.0197 2.38332 13.1879 2.37628 13.237 2.49591C13.4087 2.9322 13.7943 3.17145 14.0922 3.48811C14.3972 3.81533 14.7196 4.12495 15.0351 4.44161C15.0561 4.46272 15.0877 4.48031 15.1017 4.50846C15.3015 4.8392 15.6169 4.82512 15.9394 4.80753C16.0691 4.80049 16.0411 4.72661 15.992 4.67383C15.8237 4.49439 15.6485 4.31847 15.4697 4.14958C15.3961 4.07921 15.277 4.11088 15.1858 4.05458C15.0596 3.97718 15.0036 3.87514 15.0386 3.74144C15.0702 3.61126 15.1718 3.51274 15.3085 3.51978C15.4207 3.5233 15.5468 3.562 15.5749 3.71329C15.5994 3.85403 15.7046 3.94199 15.7957 4.03347C16.3039 4.54716 16.8157 5.05734 17.3274 5.56752C17.366 5.60622 17.3975 5.69066 17.4746 5.66251C17.5587 5.63085 17.5377 5.5464 17.5377 5.47604C17.5377 5.15586 17.5377 4.83568 17.5377 4.51198C17.5377 4.35717 17.4816 4.23402 17.373 4.12495C16.5913 3.34385 15.8062 2.56628 15.0281 1.78166C14.9615 1.71481 14.9019 1.66203 14.7968 1.64444C14.6495 1.61981 14.5479 1.51778 14.5654 1.35241C14.5794 1.20815 14.6566 1.10612 14.8213 1.09908C14.979 1.09556 15.1017 1.13075 15.1052 1.32075C15.1052 1.42982 15.1893 1.48963 15.2524 1.54944C16.0551 2.35869 16.8577 3.16441 17.6674 3.9631C17.7971 4.08977 17.8567 4.22699 17.8567 4.41346C17.8497 5.37752 17.8567 6.33806 17.8497 7.30211C17.8497 7.45692 17.8847 7.56951 18.0074 7.67859C18.2913 7.93191 18.5577 8.20987 18.8346 8.48079C18.8766 8.41394 18.8591 8.34005 18.8591 8.2732C18.8591 7.85451 18.8591 7.43933 18.8591 7.02064C18.8591 6.90453 18.8521 6.79194 18.7995 6.67583C18.74 6.54564 18.7294 6.3838 18.8486 6.24658C18.9608 6.11991 19.0905 6.08473 19.2412 6.12343C19.4129 6.16565 19.4865 6.30991 19.5181 6.46824C19.5356 6.55972 19.497 6.66175 19.434 6.7286C19.3428 6.82712 19.3253 6.93267 19.3288 7.05582C19.3323 7.60822 19.3323 8.16061 19.3288 8.71301C19.3288 8.82208 19.3604 8.90301 19.441 8.97689C19.6197 9.14578 19.7739 9.33929 19.9737 9.49059C20.0263 9.4167 20.0053 9.34633 20.0053 9.27948C20.0053 7.52026 20.0053 5.76103 20.0053 4.0018C20.0053 3.87162 19.9702 3.78718 19.8721 3.6957C19.6267 3.47404 19.3989 3.23126 19.1711 2.99201C19.0905 2.90757 19.0098 2.87238 18.8942 2.8759C18.5612 2.88294 18.2282 2.8759 17.8952 2.88294C17.7831 2.88294 17.706 2.84423 17.6324 2.77035C17.4045 2.53813 17.1662 2.31647 16.9419 2.08073C16.8612 1.99629 16.7631 1.95055 16.672 1.88722C16.4862 1.76407 16.4862 1.52833 16.672 1.40871C16.8402 1.29963 17.0786 1.40871 17.0821 1.61278C17.0821 1.75 17.1381 1.83092 17.2293 1.91536C17.408 2.08425 17.5868 2.25665 17.7515 2.43961C17.8392 2.53813 17.9303 2.57683 18.06 2.57331C18.3299 2.56628 18.5962 2.56628 18.8661 2.57331C18.9748 2.57331 19.0133 2.54165 19.0098 2.43258C19.0028 2.22147 19.0028 2.01036 19.0098 1.79574C19.0133 1.70426 18.9783 1.63741 18.9222 1.57759C18.6383 1.2926 18.3544 1.0076 18.0705 0.722609C18.0109 0.662795 17.9408 0.638166 17.8532 0.638166C17.2959 0.641684 16.7421 0.638166 16.1848 0.638166C16.1182 0.638166 16.0621 0.655758 15.9955 0.694461C15.7571 0.845754 15.5784 0.754275 15.4452 0.574834C15.34 0.430577 15.3856 0.198359 15.5433 0.0752136C15.68 -0.0303399 15.8413 -0.0127476 15.9745 0.0541029C16.0656 0.0998428 16.1497 0.117435 16.2443 0.117435C16.7946 0.117435 17.3449 0.117435 17.8952 0.117435C18.0705 0.117435 18.2177 0.166693 18.3474 0.303913C18.6734 0.648721 19.0134 0.982974 19.3533 1.31371C19.448 1.40519 19.4865 1.50019 19.483 1.62685C19.476 1.89777 19.4865 2.16517 19.4795 2.43609C19.4795 2.54868 19.5146 2.62961 19.5882 2.70701C19.8195 2.93923 20.0438 3.17849 20.2857 3.40015C20.4294 3.53033 20.475 3.67107 20.475 3.86107C20.4715 6.7286 20.4715 9.59966 20.475 12.4672C20.475 14.1807 20.4855 15.8942 20.4855 17.6077C20.4855 20.0459 20.4715 22.4842 20.482 24.926C20.482 25.204 20.4049 25.401 20.2051 25.584C19.8861 25.876 19.8931 26.3088 20.2051 26.6114C20.3453 26.7486 20.4084 26.8964 20.4014 27.1004C20.3873 27.7619 20.3908 28.4234 20.4014 29.0848C20.4014 29.2819 20.3383 29.4121 20.2016 29.5458C19.6337 30.0982 19.0764 30.6646 18.5156 31.2241C18.4595 31.2804 18.3965 31.3296 18.3965 31.4281C18.3965 31.6181 18.2633 31.7096 18.102 31.7483C17.9057 31.7941 17.7655 31.6955 17.6709 31.5196C17.5833 31.3578 17.6429 31.2276 17.755 31.1115C17.7936 31.0728 17.8391 31.0094 17.8812 31.0094C18.116 31.0094 18.2212 30.823 18.3579 30.6857C18.8451 30.2002 19.3218 29.7111 19.8125 29.2291C19.8966 29.1447 19.9317 29.0637 19.9282 28.9511C19.9247 28.4586 19.9282 27.9625 19.9282 27.4699C19.8476 27.4382 19.816 27.5086 19.781 27.5367C19.6723 27.6282 19.5882 27.7478 19.476 27.8323C19.094 28.1243 18.9257 28.4973 19.0169 28.9758C19.0554 29.1728 18.9643 29.3065 18.8311 29.4332C18.4035 29.8483 17.9829 30.2706 17.5623 30.6893C17.5062 30.7456 17.4746 30.8124 17.4536 30.8968C17.4256 31.0165 17.366 31.1326 17.2082 31.1467C17.068 31.1572 16.9629 31.122 16.8998 30.9813C16.8297 30.83 16.9278 30.6294 17.1136 30.6013C17.2082 30.5872 17.2678 30.538 17.3309 30.4746C17.7515 30.0524 18.1686 29.6267 18.5927 29.2115C18.6839 29.1235 18.7154 29.0356 18.7119 28.916C18.7049 28.7752 18.7259 28.631 18.7084 28.4937C18.6699 28.2404 18.7785 28.068 18.9538 27.9026C19.2307 27.6423 19.4935 27.3678 19.7704 27.1075C19.8686 27.016 19.8721 26.9386 19.7669 26.8647C19.5006 26.6888 19.4445 26.4284 19.4795 26.1364C19.483 26.1047 19.4865 26.073 19.4795 26.0414C19.4234 25.7212 19.5356 25.4714 19.788 25.2814C19.9702 25.1477 20.0193 24.9753 20.0123 24.7536C19.9983 24.1379 20.0088 23.5222 20.0053 22.9064C20.0053 22.8537 20.0403 22.7763 19.9702 22.7551C19.9422 22.7446 19.8861 22.7974 19.8511 22.8326C19.5076 23.1738 19.1781 23.5292 18.8171 23.8564C18.7365 23.9268 18.7154 24.0218 18.7154 24.1344C18.7189 25.0703 18.7154 26.0097 18.7224 26.9456C18.7224 27.1356 18.6663 27.2728 18.5367 27.3995C17.9548 27.973 17.3765 28.5571 16.7946 29.1306C16.679 29.2432 16.6124 29.3628 16.6334 29.5317C16.6474 29.6408 16.6194 29.7533 16.6404 29.8589C16.7 30.1967 16.5668 30.4465 16.3145 30.6576C16.1427 30.8018 15.9885 30.9707 15.8272 31.1326C15.7817 31.1783 15.7361 31.2276 15.7221 31.3015C15.687 31.495 15.6099 31.5478 15.4066 31.5302C15.2524 31.5161 15.1823 31.4281 15.1788 31.2804C15.1718 31.108 15.277 31.0094 15.4312 30.9883C15.5153 30.9778 15.5714 30.9391 15.624 30.8898C15.7852 30.7385 15.9289 30.5661 16.0971 30.4254C16.3004 30.2565 16.3705 30.0524 16.332 29.7956C16.325 29.7533 16.3565 29.6971 16.2969 29.6795C16.2479 29.6619 16.2163 29.7182 16.1918 29.7463C15.9044 30.0278 15.6204 30.3163 15.3365 30.6013C15.2734 30.6646 15.2033 30.7174 15.1403 30.7807C15.0772 30.8441 15.0246 30.9039 15.0211 31.0059C15.0176 31.1959 14.8704 31.3507 14.7021 31.3683C14.5023 31.3894 14.3271 31.2944 14.271 31.1361C14.2079 30.9531 14.285 30.7561 14.4708 30.6611C14.8949 30.443 15.1613 30.0489 15.4908 29.7322C16.1006 29.1447 16.679 28.5219 17.2889 27.9308C17.5693 27.6599 17.8462 27.3854 18.1266 27.1145C18.1897 27.0547 18.2492 26.9914 18.2457 26.8893C18.2422 26.0801 18.2457 25.2708 18.2457 24.4616C18.2457 24.437 18.2387 24.4123 18.2282 24.3666C17.9653 24.5636 17.762 24.8029 17.5412 25.021C17.2258 25.3377 16.9138 25.6544 16.5949 25.964C16.5002 26.0555 16.4652 26.1505 16.4652 26.2771C16.4722 26.5973 16.4652 26.9175 16.4687 27.2412C16.4687 27.403 16.4196 27.5367 16.3074 27.6493C15.8693 28.0856 15.4347 28.5254 14.9965 28.9617C14.9264 29.0285 14.8844 29.0919 14.8598 29.1939C14.8283 29.3276 14.7477 29.4402 14.5759 29.4437C14.3972 29.4472 14.3306 29.3241 14.2885 29.1939C14.2465 29.0708 14.3481 28.93 14.4322 28.9195C14.7126 28.8913 14.8178 28.645 15.0001 28.5008C15.0351 28.4726 15.1262 28.441 15.0912 28.3565C15.0561 28.2791 14.9825 28.3037 14.9229 28.3037C14.7302 28.3037 14.5374 28.3108 14.3481 28.3037C14.1834 28.2932 14.0642 28.36 13.952 28.4761C13.7768 28.6626 13.5875 28.8421 13.4052 29.0215C13.3001 29.1235 13.1914 29.2115 13.1704 29.3839C13.1564 29.5 13.0337 29.6056 12.8935 29.5845C12.7778 29.5669 12.6552 29.5176 12.6446 29.3663C12.6341 29.2291 12.6271 29.0919 12.8024 29.0461C13.0758 28.9723 13.23 28.7576 13.4263 28.5254C13.0582 28.5254 12.7288 28.5149 12.3993 28.5324C12.3011 28.536 12.2381 28.6556 12.168 28.733C12.0418 28.8702 11.8805 28.9687 11.8455 29.1869C11.821 29.3417 11.6282 29.4121 11.481 29.3628C11.3618 29.3206 11.2742 29.2221 11.2847 29.0954C11.2987 28.9476 11.3828 28.8245 11.5616 28.821C11.6843 28.821 11.7438 28.7154 11.8034 28.638C12.0593 28.3037 12.3748 28.1454 12.8059 28.2087C12.9987 28.2369 13.202 28.2087 13.3982 28.2158C13.598 28.2193 13.7978 28.2404 13.945 28.0539C14.0011 27.98 14.0922 27.9906 14.1764 27.9906C14.5724 27.9906 14.9685 27.9871 15.3646 27.9906C15.4802 27.9906 15.5679 27.9589 15.6415 27.871C15.6905 27.8147 15.7396 27.7584 15.7957 27.7162C16.1006 27.4875 16.2198 27.1919 16.1602 26.8154C16.1427 26.7099 16.1707 26.5973 16.1567 26.4882C16.1076 26.1188 16.1953 25.8092 16.5177 25.591C16.5633 25.5594 16.5949 25.5101 16.5808 25.4679C16.5668 25.4186 16.5037 25.4397 16.4617 25.4397C16.2128 25.4397 15.9639 25.4432 15.7151 25.4397C15.6169 25.4397 15.5503 25.4749 15.4837 25.5382C15.1297 25.8936 14.7722 26.2455 14.4217 26.6008C14.3726 26.6501 14.3306 26.7099 14.3201 26.7943C14.3025 26.9245 14.2254 27.0265 14.0852 27.0512C13.938 27.0793 13.8329 27.0125 13.7663 26.8788C13.7067 26.7591 13.7768 26.5375 13.9065 26.5234C14.1553 26.5023 14.257 26.3053 14.4042 26.168C14.7231 25.8619 15.0281 25.5453 15.34 25.2321C15.4066 25.1653 15.4873 25.1301 15.5924 25.1301C16.0025 25.1371 16.4126 25.1301 16.8192 25.1371C16.9313 25.1371 17.012 25.1055 17.0856 25.0316C17.4431 24.6762 17.8602 24.3631 18.1406 23.9549C18.6418 23.2266 19.3428 22.7024 19.9177 22.055C19.9667 21.9987 20.0088 21.9424 20.0088 21.8579C20.0053 21.2352 20.0088 20.6124 20.0088 19.9896C20.0088 19.965 20.0018 19.9404 19.9913 19.8735C19.8195 20.0741 19.5917 20.1691 19.5356 20.4365C19.5005 20.5913 19.3849 20.6969 19.1991 20.6652C19.0484 20.6406 18.9608 20.5245 18.9608 20.3943C18.9608 20.2465 19.0484 20.1198 19.2307 20.1163C19.2552 20.1163 19.2903 20.1163 19.3043 20.1022C19.5356 19.8735 19.7704 19.6484 19.9948 19.4126C20.0228 19.3845 20.0123 19.3141 20.0123 19.2648C20.0123 19.015 20.0053 18.7652 20.0123 18.5154C20.0193 18.3676 19.9562 18.3008 19.8195 18.2973C19.6408 18.2938 19.462 18.2902 19.2832 18.2973C19.1816 18.3008 19.094 18.3465 19.0169 18.4239C18.6418 18.8039 18.2598 19.1769 17.8777 19.5498C17.8602 19.5674 17.8391 19.5815 17.8216 19.5991C17.6604 19.7891 17.699 20.6441 17.8742 20.82C17.9934 20.9396 18.109 21.0663 18.2387 21.1754C18.421 21.3337 18.5472 21.5096 18.5016 21.77C18.4841 21.8615 18.5472 21.9389 18.5892 22.0163C18.6699 22.1535 18.6699 22.2872 18.5472 22.3927C18.4385 22.4877 18.2948 22.4737 18.1897 22.4068C18.0565 22.3189 18.0565 22.164 18.1196 22.0303C18.2598 21.7172 18.1371 21.3407 17.8356 21.2246C17.727 21.1824 17.7305 21.2809 17.7305 21.3513C17.7305 21.7348 17.72 22.1218 17.7305 22.5053C17.7375 22.734 17.6849 22.9064 17.5027 23.0648C17.3555 23.1914 17.1697 23.3111 17.1451 23.5609C17.1346 23.6594 16.9979 23.772 16.8507 23.7333C16.7245 23.6981 16.6229 23.6348 16.6229 23.4729C16.6229 23.3216 16.6614 23.2231 16.8297 23.1879C17.075 23.1316 17.1907 22.9029 17.3625 22.7481C17.4571 22.6637 17.4115 22.544 17.4115 22.442C17.415 21.7313 17.4115 21.017 17.4115 20.3028C17.4115 20.2289 17.4256 20.148 17.3905 20.0776C17.3239 20.0424 17.3099 20.1198 17.2924 20.1409C17.1136 20.3696 16.9033 20.5069 16.6019 20.4435C16.5212 20.4259 16.4652 20.4752 16.4161 20.5174C16.2689 20.637 16.1357 20.6159 16.013 20.4893C15.9114 20.3837 15.9114 20.2606 15.992 20.1409C16.0971 19.9896 16.2514 20.0108 16.3846 20.0706C16.6229 20.1796 16.8157 20.1585 16.9944 19.9826C17.4957 19.4865 17.9969 18.9904 18.4981 18.4943C18.5437 18.4486 18.6348 18.4204 18.5962 18.3325C18.5647 18.2621 18.4806 18.2938 18.421 18.2938C17.9934 18.2938 17.5658 18.2938 17.1346 18.2938C17.0155 18.2938 16.9208 18.3254 16.8332 18.4134C16.3355 18.92 15.8308 19.4197 15.3225 19.9158C15.2314 20.0037 15.2349 20.1022 15.2349 20.2113C15.2349 21.2563 15.2349 22.3048 15.2349 23.3498C15.2349 23.5327 15.1823 23.6805 15.0491 23.8072C13.7067 25.102 12.4098 26.439 11.0884 27.7584C11.0218 27.8252 10.9552 27.8851 10.9517 27.9941C10.9447 28.1876 10.8045 28.3354 10.6327 28.36C10.4715 28.3811 10.2542 28.251 10.1981 28.0962C10.142 27.9413 10.2121 27.7302 10.3909 27.6528C10.6538 27.5402 10.815 27.3221 11.0043 27.1356C12.21 25.9358 13.4052 24.7325 14.6075 23.5292C14.6671 23.4694 14.7196 23.4201 14.7196 23.3216C14.7161 22.3963 14.7196 21.4744 14.7196 20.5491C14.7196 20.5174 14.7091 20.4893 14.7021 20.4224C14.4147 20.7074 14.1483 20.9678 13.8819 21.2352C13.3982 21.7172 12.918 22.1992 12.4378 22.6813C12.3642 22.7551 12.3257 22.8361 12.3292 22.9487C12.3362 23.4307 12.3292 23.9127 12.3327 24.3912C12.3327 24.5073 12.2976 24.5953 12.2135 24.6762C12.0908 24.7959 11.9752 24.926 11.8525 25.0457C11.7509 25.1442 11.6562 25.2286 11.6282 25.3905C11.6071 25.5136 11.481 25.6192 11.3302 25.5875C11.2076 25.5594 11.0989 25.4925 11.0989 25.3307C11.0989 25.1829 11.1235 25.0633 11.3022 25.0457C11.4459 25.0316 11.5195 24.912 11.6177 24.831C11.9366 24.5812 12.0944 24.2786 12.0243 23.8599C11.9962 23.684 12.0243 23.5011 12.0172 23.3216C12.0172 23.2759 12.0453 23.202 11.9822 23.1914C11.9471 23.1844 11.9016 23.2231 11.863 23.2618C11.4109 23.7227 10.9307 24.152 10.5031 24.634C10.2121 24.9647 9.90719 25.1266 9.46906 25.0668C9.24824 25.0351 9.02041 25.0597 8.79959 25.0633C8.63836 25.0633 8.48063 25.0527 8.33342 25.1723C8.21074 25.2744 8.09858 25.1723 8.01796 25.0703C7.93033 24.9647 7.93033 24.8521 8.01796 24.7466C8.09858 24.6516 8.20023 24.5425 8.33342 24.6446C8.47362 24.7501 8.62084 24.7536 8.77856 24.7536C9.09752 24.7501 9.41648 24.7501 9.73895 24.7536C9.86513 24.7536 9.95276 24.722 10.0474 24.627C11.0463 23.6172 12.0488 22.6144 13.0547 21.6117C13.1003 21.5659 13.1879 21.5272 13.1634 21.4604C13.1389 21.4005 13.0512 21.4287 12.9881 21.4287C12.3047 21.4287 11.6212 21.4217 10.9342 21.4287C10.7624 21.4287 10.6292 21.3759 10.5136 21.2598C10.0474 20.7919 9.57771 20.3274 9.11505 19.8559C9.03443 19.775 8.95732 19.7328 8.84165 19.7363C8.57176 19.7434 8.30538 19.7398 8.03549 19.7363C7.97941 19.7363 7.91982 19.7539 7.87075 19.7082C7.76209 19.5921 7.63942 19.5182 7.47468 19.4795C7.33798 19.4478 7.30293 19.2965 7.33097 19.1487C7.35901 19.0045 7.45014 18.9623 7.58684 18.9552C7.75158 18.9447 7.84972 19.0291 7.87075 19.1734C7.89879 19.3774 8.00745 19.4408 8.19672 19.4337C8.42806 19.4267 8.65939 19.4443 8.88722 19.4267C9.07299 19.4126 9.20618 19.4795 9.32886 19.6061C9.774 20.0635 10.2297 20.5104 10.6748 20.9678C10.7484 21.0417 10.8255 21.0663 10.9237 21.0663C11.2321 21.0663 11.537 21.0698 11.842 21.0768C11.884 21.0768 11.9191 21.0839 11.9366 21.0381C11.9471 21.003 11.9191 20.9889 11.8946 20.9678C11.7579 20.8376 11.6177 20.7074 11.4915 20.5632C11.4389 20.5033 11.3793 20.5174 11.3232 20.4963C11.2146 20.4506 11.0989 20.4048 11.0884 20.257C11.0779 20.1198 11.0989 20.0108 11.2426 19.9439C11.3968 19.8771 11.6036 19.965 11.6247 20.1374C11.6387 20.243 11.6843 20.3028 11.7544 20.3732C11.9506 20.5632 12.1364 20.7637 12.3257 20.9572C12.3993 21.0311 12.4799 21.0733 12.5921 21.0698C12.8725 21.0628 13.1564 21.0628 13.4368 21.0698C13.549 21.0698 13.6296 21.0346 13.7032 20.9607C14.0081 20.6546 14.3656 20.3837 14.6075 20.0319C15.0281 19.4232 15.6204 18.9869 16.1006 18.438C16.1357 18.3958 16.1813 18.3606 16.1532 18.3149C16.1217 18.255 16.0516 18.2867 15.9955 18.2867C14.4498 18.2867 12.9005 18.2867 11.3548 18.2867C11.1971 18.2867 11.0849 18.2445 10.9762 18.1319C10.7694 17.9138 10.5346 17.7202 10.3383 17.4951C10.2297 17.3719 10.114 17.3367 9.95977 17.3367C7.61138 17.3367 4.10843 17.3367 1.76354 17.3367C-0.907321 17.3367 3.56864 17.3367 0.894278 17.3367C0.775105 17.3367 0.66645 17.3367 0.550783 17.4106C0.417591 17.5021 0.168731 17.4212 0.0740939 17.2875C-0.027553 17.1467 -0.0240464 16.9497 0.0811055 16.8195C0.193268 16.6788 0.372027 16.633 0.54728 16.7351C0.676967 16.809 0.806654 16.816 0.946857 16.816C5.98714 16.816 5.03164 16.816 10.0719 16.8125C10.2752 16.8125 10.433 16.8547 10.5626 17.0201C10.6818 17.1678 10.8395 17.284 10.9587 17.4317C11.2041 17.7378 11.502 17.8328 11.8981 17.8223C13.258 17.7941 14.6215 17.8117 15.985 17.8117C16.0411 17.8117 16.1217 17.8539 16.1532 17.773C16.1848 17.6991 16.1041 17.6604 16.0621 17.6217C15.5994 17.1573 15.1332 16.6929 14.6671 16.2319C14.5935 16.1581 14.5093 16.1193 14.3972 16.1229C13.7978 16.1299 13.1949 16.1229 12.5956 16.1299C12.4729 16.1299 12.3853 16.0947 12.3011 16.0068C11.9541 15.6549 11.5931 15.3136 11.2496 14.9583C11.1445 14.8492 11.0884 14.8562 10.9867 14.9583C10.7204 15.2327 10.433 15.4825 10.1736 15.7605C10.0404 15.9047 9.89317 15.9575 9.7074 15.954C6.75263 15.954 6.05373 15.954 3.09897 15.954C2.97278 15.954 2.85711 15.9505 2.73444 16.0279C2.63279 16.0947 2.47857 16.0806 2.39444 15.961C2.31383 15.8449 2.30682 15.7042 2.40146 15.5916C2.49609 15.4755 2.6363 15.4649 2.75897 15.5423C2.88516 15.6232 3.01134 15.6479 3.15505 15.6479C6.05724 15.6479 6.70707 15.6479 9.60926 15.6479C9.78101 15.6479 9.90368 15.5916 10.0229 15.472C10.2472 15.2468 10.4855 15.0357 10.7169 14.8175L10.6713 14.7436L10.6818 14.7542Z" fill="#4D2783"/>
  <path d="M26.217 32.1177C25.1235 32.065 24.079 31.6815 23.2447 30.8265C22.8066 30.3796 22.5157 29.8343 22.3475 29.2256C22.1827 28.6345 22.0986 28.0363 22.1372 27.4277C22.1687 26.9527 22.2143 26.4812 22.3334 26.0132C22.407 25.7212 22.4771 25.4327 22.5578 25.1407C22.5963 25.0034 22.4666 24.8697 22.4105 24.7396C22.2002 24.247 22.046 23.7403 21.9514 23.209C21.8497 22.6461 21.7796 22.0796 21.8252 21.5096C21.8638 21.0487 21.9163 20.5878 22.0215 20.1339C22.1407 19.6308 22.2809 19.1347 22.4912 18.6597C22.5297 18.5752 22.4421 18.5049 22.4 18.4415C21.8252 17.6147 21.7025 16.6823 21.8322 15.7218C21.9268 15.0146 22.2143 14.3566 22.6068 13.7585C22.74 13.5509 22.7505 13.4137 22.6244 13.2026C22.3404 12.717 22.1582 12.1928 22.0285 11.6404C21.8673 10.9613 21.8497 10.2752 21.9058 9.59263C21.9514 9.04727 22.053 8.50191 22.2563 7.98821C22.2949 7.88618 22.3019 7.78766 22.2318 7.67507C21.9198 7.17193 21.7446 6.62306 21.6359 6.03899C21.5833 5.76455 21.5693 5.4866 21.5308 5.21568C21.4747 4.79698 21.5763 4.3818 21.692 3.97718C21.7095 3.91385 21.72 3.85404 21.72 3.7907C21.7516 2.78795 22.1056 1.91185 22.7891 1.18705C23.1466 0.810576 23.5883 0.539655 24.0895 0.367251C24.7309 0.145589 25.3898 0.043554 26.0558 0.082257C27.3387 0.152626 28.4778 0.553729 29.291 1.62686C29.4172 1.79222 29.5223 1.8063 29.7081 1.74297C29.9149 1.6726 30.1497 1.69019 30.3635 1.72889C31.1101 1.86963 31.72 2.2637 32.2142 2.82665C32.6769 3.35442 33.0239 3.95255 33.1921 4.65272C33.2762 5.00809 33.3393 5.35641 33.3288 5.72233C33.3253 5.849 33.2517 5.95455 33.2552 6.08121C33.2552 6.16214 33.2762 6.20788 33.3604 6.23954C33.9597 6.46121 34.4294 6.85527 34.822 7.35137C35.1935 7.81581 35.4529 8.34006 35.6422 8.89949C35.7613 9.25486 35.849 9.62078 35.9085 9.99725C36.0242 10.722 36.0733 11.4504 36.0522 12.1857C36.0522 12.242 36.0628 12.2878 36.1048 12.3405C36.3257 12.6079 36.4623 12.9105 36.4553 13.2694C36.4518 13.5544 36.4799 13.8394 36.3677 14.1138C36.2976 14.2827 36.4028 14.4411 36.4483 14.5994C36.55 14.9547 36.6271 15.3171 36.6937 15.6831C36.7673 16.0736 36.7953 16.4677 36.8093 16.8582C36.8339 17.4986 36.7427 18.1319 36.6096 18.7617C36.3502 19.9932 35.8384 21.105 35.1164 22.1253C35.0463 22.2239 34.9902 22.3329 34.9026 22.4103C34.7133 22.5792 34.7414 22.7587 34.822 22.9663C34.9271 23.2407 34.9832 23.5257 35.0463 23.8142C35.1129 24.1309 35.1199 24.444 35.1129 24.7607C35.0919 25.6332 34.808 26.4179 34.2927 27.118C33.5742 28.0926 32.6068 28.7365 31.5202 29.2326C31.1171 29.4156 30.707 29.5845 30.2794 29.7006C30.1848 29.7252 30.1217 29.8061 30.0691 29.8835C29.5188 30.7068 28.8108 31.3472 27.917 31.7694C27.6226 31.9102 27.3001 31.9946 26.9671 32.0509C26.7428 32.0896 26.5185 32.1002 26.21 32.1177H26.217ZM22.379 2.86887C22.4806 2.85831 22.5227 2.79146 22.5858 2.76683C22.6839 2.72813 22.761 2.6085 22.8942 2.69647C23.101 2.82665 23.1116 3.00609 22.8942 3.15738C22.3054 3.57256 22.0706 4.16718 22.039 4.86031C22.018 5.3353 22.0776 5.79974 22.1862 6.26065C22.2738 6.63009 22.4 6.97842 22.5893 7.30563C22.7435 7.56952 22.9398 7.7947 23.1887 7.97766C23.3149 8.06914 23.3534 8.20636 23.2798 8.3471C23.2062 8.48783 23.0695 8.45265 22.9503 8.4245C22.9013 8.41395 22.8557 8.36821 22.8136 8.3295C22.7295 8.25562 22.6945 8.2521 22.6489 8.37876C22.4456 8.96986 22.386 9.59263 22.372 10.2048C22.3615 10.715 22.414 11.2322 22.5613 11.7354C22.6839 12.1505 22.8241 12.5481 23.0274 12.9316C23.087 13.0442 23.1326 12.9879 23.1852 12.9563C23.2202 12.9352 23.2412 12.8894 23.2693 12.8577C23.406 12.71 23.5672 12.6783 23.6794 12.7768C23.795 12.8789 23.7845 13.0477 23.6408 13.192C23.42 13.4172 23.2412 13.6775 23.073 13.9379C22.9749 14.0892 22.8276 14.2299 22.8206 14.4199C22.7891 15.1236 22.7786 15.8308 23.0555 16.4993C23.3254 17.1503 23.8161 17.5408 24.5451 17.576C24.8185 17.5901 25.0884 17.5549 25.3478 17.4845C25.5721 17.4247 25.7929 17.3191 25.9226 17.108C26.1119 16.8055 26.0733 16.4888 25.9156 16.2003C25.6878 15.7781 25.2041 15.3946 24.5837 15.6233C24.4084 15.6866 24.2858 15.8344 24.2787 16.0244C24.2717 16.334 24.3769 16.5803 24.6608 16.7421C24.7309 16.7808 24.8501 16.8301 24.7975 16.9532C24.7414 17.0869 24.6257 17.0729 24.5206 17.0271C24.3313 16.9497 24.2121 16.7949 24.1035 16.626C23.9002 16.3058 23.8546 15.676 24.2822 15.4262C24.6608 15.2081 25.0534 15.1553 25.4494 15.3453C25.9331 15.574 26.2205 15.954 26.3397 16.4993C26.4449 16.9884 26.1224 17.481 25.7684 17.6534C25.3268 17.8715 24.8606 17.9208 24.3804 17.8786C23.9913 17.8434 23.6338 17.7132 23.3324 17.4423C22.8802 17.0377 22.6769 16.5169 22.5648 15.9364C22.5262 15.7323 22.5122 15.5247 22.4771 15.289C22.3159 15.5142 22.3089 15.7499 22.2809 15.9645C22.1862 16.728 22.3545 17.4458 22.754 18.1002C22.8522 18.2621 22.9573 18.4239 23.1501 18.5189C23.7109 18.8004 24.3208 18.818 24.9202 18.8849C25.4319 18.9411 25.9401 18.8391 26.4484 18.8039C26.6166 18.7934 26.7919 18.7652 26.9601 18.7265C27.3912 18.6245 27.8259 18.526 28.2395 18.3536C28.7127 18.1565 29.1683 17.9314 29.5083 17.5338C29.971 16.9884 30.2128 16.3164 30.5037 15.676C30.8262 14.9759 31.1347 14.2651 31.5377 13.6072C31.9303 12.9598 32.3965 12.3687 33.0729 11.9817C33.4725 11.753 33.9072 11.6474 34.3558 11.6615C34.6993 11.6685 35.0428 11.7424 35.3653 11.8761C35.523 11.943 35.5195 11.862 35.516 11.7565C35.4949 11.285 35.516 10.8135 35.4389 10.3385C35.3477 9.80725 35.2391 9.28652 35.0393 8.78338C34.7168 7.97062 34.2507 7.28101 33.4725 6.83768C33.1255 6.64065 33.094 6.63713 32.8626 6.9362C32.4911 7.41823 32.0074 7.71378 31.4291 7.8897C30.8753 8.05858 30.3355 8.03044 29.8062 7.85099C29.2524 7.66452 28.7722 7.33378 28.4392 6.84472C28.1448 6.41547 27.917 5.94751 28.0923 5.39512C28.1098 5.34234 28.1203 5.28253 28.0782 5.22271C27.5314 5.46197 27.1529 5.85955 27.0302 6.44713C26.9426 6.86583 26.9776 7.30915 27.1143 7.71729C27.2475 8.10784 27.3352 8.51246 27.3807 8.91357C27.4543 9.53633 27.3492 10.1415 26.9952 10.6763C26.9636 10.722 26.9321 10.7643 26.9531 10.81C27.0302 10.9859 27.0653 11.1724 27.1108 11.3589C27.251 11.9042 27.3071 12.4426 27.1809 13.002C27.0477 13.5896 26.3467 14.1244 25.6632 13.8077C25.2602 13.6213 24.9798 13.1322 25.2356 12.7205C25.5195 12.2631 26.0558 12.0555 26.4659 12.5446C26.5535 12.6502 26.6517 12.7733 26.5045 12.8894C26.3502 13.0126 26.3082 12.8261 26.2311 12.7557C26.0383 12.5798 25.9787 12.534 25.7544 12.6431C25.5616 12.7381 25.4284 12.9633 25.4635 13.1322C25.5055 13.3327 25.7719 13.5544 25.9822 13.5755C26.515 13.6248 26.8515 13.2307 26.9251 12.724C26.9847 12.3229 26.9356 11.9183 26.8374 11.5313C26.8059 11.4011 26.7989 11.2569 26.7288 11.1267C26.6762 11.0282 26.6341 11.0422 26.5781 11.0844C26.0803 11.4293 25.5406 11.482 24.9763 11.3096C24.7239 11.2322 24.5276 11.0598 24.4645 10.8135C24.2717 10.0641 24.8641 9.19152 25.7193 9.36041C25.863 9.38856 26.0102 9.43782 26.0733 9.58207C26.1119 9.67003 26.1189 9.78614 26.0173 9.86355C25.9051 9.95151 25.7789 9.93392 25.6738 9.8741C25.5581 9.81077 25.4389 9.7967 25.3408 9.85299C25.1445 9.96206 25.0008 10.1309 24.9272 10.3491C24.8641 10.5391 24.9517 10.7678 25.1059 10.8276C25.4319 10.9613 25.7614 10.9367 26.0768 10.7959C26.3678 10.6658 26.5711 10.4476 26.7218 10.1591C26.876 9.86707 26.9075 9.54689 26.9005 9.2443C26.8935 8.99097 26.8655 8.72357 26.8094 8.45969C26.7183 8.04099 26.5851 7.63637 26.5185 7.20712C26.4624 6.85175 26.5115 6.52102 26.5851 6.1938C26.6797 5.76807 26.9356 5.42678 27.2651 5.14179C27.2931 5.11716 27.3352 5.1066 27.3211 5.05735C27.3071 5.00105 27.2651 4.99401 27.216 4.99049C27.0477 4.98346 26.8865 4.94827 26.7253 4.91309C26.4203 4.84624 26.1189 4.76883 25.8525 4.60698C25.2847 4.26218 24.6923 4.11088 24.0299 4.26569C23.5953 4.36773 23.1782 4.8955 23.2307 5.34938C23.3043 5.94399 23.774 6.28528 24.3383 6.22547C24.5031 6.20788 24.6959 6.04251 24.7029 5.83844C24.7099 5.59215 24.5942 5.4303 24.4154 5.28956C24.3383 5.22623 24.2437 5.1629 24.3418 5.04327C24.4295 4.93772 24.5101 4.96587 24.6082 5.03623C24.7134 5.11012 24.7975 5.19808 24.8711 5.30012C25.12 5.64141 25.0849 6.30288 24.5592 6.48232C24.114 6.63361 23.7214 6.53158 23.3779 6.2501C23.0099 5.94751 22.8557 5.55697 22.9608 5.0679C23.0485 4.65624 23.2307 4.32551 23.5918 4.09681C23.739 4.00533 23.8967 3.9807 24.0544 3.93496C24.3348 3.85755 24.6152 3.88218 24.8956 3.92089C24.9377 3.92792 24.9798 3.97014 25.0183 3.93848C25.0709 3.89978 25.0183 3.85404 25.0043 3.81533C24.8536 3.36497 24.8571 2.91461 24.9973 2.46425C25.1866 1.86259 25.842 1.50723 26.4344 1.70778C26.9917 1.89426 27.4438 2.45017 27.1809 3.13275C27.1178 3.2946 27.0267 3.36497 26.8655 3.33682C26.6972 3.30516 26.6797 3.17849 26.7007 3.04127C26.7183 2.93572 26.7884 2.82313 26.7708 2.72461C26.7007 2.31295 26.2241 2.035 25.828 2.21796C25.5861 2.33055 25.509 2.53462 25.4284 2.7598C25.3022 3.11164 25.4004 3.62182 25.6668 3.88218C25.9717 4.18125 26.3608 4.32903 26.7603 4.41699C27.2896 4.52958 27.8294 4.59643 28.3727 4.58235C28.5129 4.58235 28.625 4.54013 28.7407 4.45217C29.0386 4.22699 29.3856 4.10385 29.7572 4.13199C30.2444 4.16718 30.6895 4.34662 31.04 4.69143C31.3064 4.95179 31.4746 5.28605 31.3555 5.66604C31.1977 6.16918 30.7736 6.3838 30.311 6.52806C30.1532 6.57732 30.0446 6.47528 29.9955 6.3451C29.9499 6.21843 30.013 6.1164 30.1497 6.0601C30.346 5.97918 30.5563 5.9264 30.714 5.76455C30.9033 5.56752 30.9384 5.41623 30.7841 5.18049C30.5213 4.77587 29.8203 4.51199 29.2665 4.73365C28.7722 4.93068 28.4252 5.54993 28.59 6.03899C28.8599 6.85175 29.652 7.37249 30.4056 7.471C30.8577 7.53082 31.2959 7.46045 31.7095 7.24582C32.2528 6.96786 32.6593 6.56676 32.768 5.95455C32.8591 5.43734 32.8066 4.90605 32.6068 4.40995C32.3229 3.70626 31.9023 3.09757 31.2854 2.64721C30.9173 2.3798 30.5107 2.19685 30.0306 2.21444C29.7852 2.22499 29.5504 2.29184 29.3085 2.31999C29.1999 2.33406 29.1192 2.36221 29.0421 2.43258C28.7898 2.66128 28.6636 2.94628 28.6601 3.28756C28.6601 3.39664 28.6601 3.50219 28.5058 3.49867C28.3586 3.49515 28.3411 3.40016 28.3446 3.28756C28.3551 2.8372 28.5094 2.45369 28.8634 2.17222C28.9896 2.07018 28.979 2.00333 28.8879 1.89426C28.243 1.10261 27.3947 0.697986 26.3993 0.610024C25.8876 0.564285 25.3688 0.564285 24.8536 0.66632C24.3664 0.764836 23.9142 0.926685 23.5111 1.2152C22.9468 1.61982 22.5893 2.17222 22.379 2.85128V2.86887ZM28.4743 26.1364C28.4568 26.1082 28.4498 26.0836 28.4322 26.066C28.3937 26.0238 28.3551 25.9851 28.3131 25.9499C27.889 25.5875 27.6752 25.1442 27.7207 24.5742C27.7663 24.0148 28.1238 23.5046 28.8003 23.5855C29.2524 23.6418 29.7011 24.1379 29.659 24.5953C29.617 25.0668 29.4417 25.2708 28.986 25.3658C28.8528 25.394 28.7302 25.3271 28.611 25.292C28.5549 25.2744 28.5619 25.1723 28.5865 25.1125C28.6285 25.0175 28.7126 24.9999 28.8108 25.014C29.2104 25.0668 29.312 24.912 29.3015 24.5953C29.3015 24.5355 29.2945 24.4792 29.2945 24.4194C29.2945 24.0816 28.7722 23.7474 28.3902 23.9549C28.0923 24.1168 27.917 24.6657 28.0537 25.0351C28.2149 25.4819 28.7337 26.0766 29.4067 26.0977C29.8062 26.1117 30.1287 26.3299 30.367 26.6501C30.5563 26.9104 30.6404 27.2095 30.707 27.5297C30.8087 28.0082 30.672 28.448 30.5808 28.8984C30.5703 28.9476 30.5002 29.0004 30.5493 29.0497C30.5914 29.0954 30.6615 29.0672 30.714 29.0461C30.9909 28.923 31.2713 28.8104 31.5412 28.6732C32.4525 28.2158 33.2797 27.6563 33.9001 26.819C34.4084 26.1364 34.6222 25.3658 34.6397 24.532C34.6397 24.3525 34.5696 24.1766 34.5766 23.9936C34.5836 23.8177 34.517 23.6488 34.475 23.4835C34.3838 23.1281 34.2577 22.7798 34.1034 22.449C33.9387 22.0937 33.774 21.7348 33.448 21.492C32.9222 21.1015 32.3439 20.9607 31.6849 21.0768C31.2328 21.1578 30.8192 21.302 30.4477 21.5694C30.1953 21.7489 29.9815 21.9776 29.9219 22.2802C29.8097 22.8396 29.9219 23.3498 30.346 23.7825C30.7035 24.1485 31.1276 24.3666 31.6148 24.444C31.9794 24.5038 32.3614 24.5038 32.6699 24.2294C32.9012 24.0218 33.0099 23.7649 33.0484 23.4518C33.0905 23.1 33.0274 22.7903 32.789 22.537C32.5857 22.3189 32.3088 22.2626 32.0179 22.2837C31.8777 22.2942 31.7831 22.2344 31.7761 22.0761C31.7691 21.9248 31.8287 21.8263 31.9864 21.8087C32.9082 21.7066 33.4725 22.3189 33.5637 23.1351C33.5987 23.4553 33.5391 23.7685 33.4094 24.057C33.2061 24.5109 32.8661 24.8416 32.3754 24.9155C31.9198 24.9858 31.4571 24.9753 31.0085 24.7923C30.2093 24.4686 29.638 23.9549 29.4242 23.0859C29.2805 22.4948 29.4031 21.967 29.7817 21.5237C30.3039 20.9115 31.0155 20.63 31.8041 20.5632C32.2808 20.5245 32.754 20.5526 33.1921 20.7743C33.2272 20.7919 33.2692 20.7954 33.3043 20.7743C33.3393 20.7531 33.3253 20.718 33.3148 20.6863C33.1816 20.2324 33.1711 19.7715 33.3428 19.3282C33.5602 18.7617 34.2121 18.2058 34.9026 18.7617C35.4038 19.1663 35.6001 19.9756 34.9692 20.4506C34.7343 20.6265 34.4645 20.7285 34.177 20.6054C33.7915 20.4365 33.7004 19.9826 33.9317 19.6026C34.0403 19.4232 34.177 19.3035 34.3944 19.3247C34.4855 19.3317 34.5801 19.3739 34.5871 19.5006C34.5941 19.6378 34.503 19.6378 34.4084 19.6378C34.2261 19.6378 34.1841 19.7926 34.1385 19.9158C34.0894 20.053 34.1385 20.1761 34.2577 20.2711C34.3698 20.3661 34.4855 20.345 34.5976 20.2922C35.1444 20.0459 35.176 19.5639 34.829 19.1382C34.6783 18.9552 34.4925 18.8004 34.2436 18.8532C33.9562 18.92 33.7599 19.1311 33.6583 19.4056C33.476 19.8841 33.5531 20.3732 33.6758 20.8517C33.7004 20.9502 33.7144 21.0733 33.816 21.1543C34.0929 21.3794 34.2927 21.6644 34.4399 21.9916C34.475 22.0655 34.517 22.1183 34.6117 21.9987C34.8675 21.6679 35.0849 21.3161 35.2846 20.9537C35.5896 20.3978 35.8314 19.8137 36.0102 19.2015C36.1504 18.7124 36.2661 18.2199 36.2976 17.7132C36.3537 16.7984 36.3186 15.8907 36.0663 15.0005C36.0207 14.8422 35.9716 14.8105 35.8384 14.9231C35.3618 15.3207 34.8044 15.296 34.2471 15.2221C34.0754 15.201 33.8966 15.1342 33.7354 15.0322C33.0835 14.6135 33.0134 13.7725 33.3849 13.192C33.7074 12.6853 34.1069 12.4742 34.5661 12.5798C34.7098 12.6115 34.843 12.7592 34.815 12.8718C34.7764 13.0266 34.6642 13.097 34.51 13.0618C34.2577 13.0055 34.0754 13.1181 33.9247 13.294C33.5567 13.7233 33.5111 14.2511 33.9808 14.5853C34.2612 14.7859 34.6082 14.7999 34.9446 14.7718C35.2426 14.7436 35.4879 14.6135 35.6772 14.3812C35.9646 14.0329 36.0487 13.6213 35.9751 13.192C35.9261 12.8965 35.7859 12.6361 35.4914 12.4883C35.2811 12.3828 35.0638 12.3089 34.8325 12.2526C34.4014 12.147 33.9878 12.1646 33.5742 12.3265C33.1255 12.5024 32.789 12.8155 32.4911 13.1744C31.8742 13.9274 31.4922 14.814 31.0786 15.6866C30.686 16.5134 30.4231 17.4141 29.7221 18.0651C29.6941 18.0932 29.6835 18.1178 29.7011 18.1495C29.7221 18.1952 29.7537 18.1565 29.7817 18.153C29.9394 18.1319 30.0972 18.1002 30.2549 18.0686C30.7281 17.9665 31.2153 17.9841 31.6919 17.9173C32.1792 17.8504 32.6383 17.7202 33.0694 17.4986C33.3218 17.3684 33.5672 17.1995 33.6478 16.9075C33.7284 16.6119 33.6653 16.3269 33.4094 16.1299C33.1431 15.9258 32.8276 15.866 32.5156 15.9751C32.1967 16.0877 32.0354 16.3516 32.0214 16.6929C32.0179 16.8054 31.9899 16.8829 31.8567 16.8793C31.72 16.8793 31.706 16.7879 31.706 16.6823C31.706 16.4993 31.7656 16.3375 31.8392 16.1721C32.1336 15.5071 33.1501 15.4649 33.6513 15.9188C34.128 16.3516 34.135 17.203 33.4235 17.6569C32.8101 18.0475 32.1231 18.2023 31.4186 18.2691C30.9699 18.3113 30.5248 18.3465 30.0796 18.4275C29.4943 18.533 28.93 18.6878 28.3762 18.9024C27.5349 19.2297 26.7779 19.6871 26.1995 20.3943C25.6247 21.0944 25.2602 21.8791 25.3268 22.8114C25.3478 23.1 25.4915 23.3392 25.7193 23.5257C26.0418 23.7896 26.4168 23.7966 26.7954 23.7438C27.0933 23.7016 27.3807 23.4201 27.4228 23.1809C27.5244 22.625 27.0898 22.1605 26.5851 22.1852C26.3888 22.1957 26.2241 22.259 26.0628 22.354C25.9647 22.4139 25.863 22.4068 25.8105 22.3224C25.7509 22.2344 25.7964 22.1429 25.8911 22.0796C26.3432 21.7911 26.9917 21.77 27.4088 22.1887C27.8995 22.6742 27.8784 23.5081 27.2721 23.8775C26.862 24.1309 26.4168 24.1273 25.9577 24.0077C25.4775 23.8811 25.0148 23.3322 24.9973 22.7481C24.9868 22.3294 25.0604 21.9283 25.176 21.5307C25.1866 21.4991 25.2532 21.4744 25.2041 21.4357C25.169 21.4076 25.1305 21.4357 25.0849 21.4604C24.6503 21.6891 24.2157 21.8579 23.6969 21.7418C23.1817 21.6257 22.8732 21.2317 22.9714 20.7144C23.094 20.0635 23.767 19.6448 24.4014 20.0917C24.6538 20.2711 24.7659 20.4998 24.6958 20.7778C24.6678 20.8939 24.5872 20.9783 24.482 21.0241C24.433 21.0452 24.3523 21.0522 24.3208 20.9959C24.2717 20.8974 24.2893 20.8059 24.3664 20.7109C24.4154 20.6476 24.4119 20.5526 24.3453 20.4787C24.0965 20.1972 23.6969 20.0952 23.4095 20.4787C23.2377 20.7074 23.1817 21.1156 23.441 21.2809C23.6969 21.4428 23.9528 21.5061 24.2647 21.4428C24.8641 21.3161 25.3268 20.9854 25.6913 20.5209C26.0208 20.1022 26.3748 19.7187 26.8024 19.4021C26.862 19.3598 26.89 19.3176 26.911 19.2684C26.4799 19.3035 26.0628 19.3915 25.6387 19.3915C25.127 19.3915 24.6187 19.4091 24.1105 19.3211C23.7495 19.2578 23.3955 19.191 23.0625 19.0397C22.9293 18.9799 22.8732 19.0291 22.8452 19.1171C22.7225 19.5041 22.5858 19.8876 22.5017 20.2887C22.4596 20.4787 22.4561 20.6722 22.4105 20.8587C22.3159 21.2457 22.3159 21.6468 22.3229 22.0339C22.3264 22.3716 22.3404 22.727 22.4211 23.0718C22.5052 23.4448 22.5928 23.8142 22.719 24.1766C22.8627 24.5883 23.0625 24.9718 23.2798 25.3482C23.4025 25.5629 23.2938 25.7318 23.038 25.7318C22.9678 25.7318 22.9223 25.7318 22.8942 25.8197C22.7786 26.1821 22.754 26.5621 22.6769 26.9315C22.6559 27.0406 22.6489 27.1567 22.6769 27.2693C22.7015 27.2693 22.7085 27.2693 22.712 27.2693C22.733 27.2447 22.754 27.2236 22.7751 27.199C23.2658 26.5445 23.8862 26.3017 24.7029 26.4917C25.4845 26.6747 26.217 27.4839 25.9472 28.4199C25.842 28.7858 25.6667 29.0919 25.3653 29.3276C25.0849 29.5493 24.7659 29.6619 24.4189 29.7358C24.0684 29.8096 23.781 29.7217 23.5181 29.5106C23.1256 29.1939 23.1221 28.4304 23.3289 28.0539C23.4936 27.7513 23.7144 27.5578 24.0825 27.5895C24.1981 27.6001 24.2963 27.6352 24.2858 27.7619C24.2787 27.8675 24.1946 27.9132 24.0789 27.9097C23.9913 27.9097 23.9107 27.8991 23.8231 27.9554C23.4445 28.1947 23.4305 28.9124 23.6513 29.1798C23.8581 29.4261 24.0965 29.4754 24.4119 29.4156C24.8886 29.3241 25.2637 29.0954 25.5055 28.6802C25.7018 28.3424 25.7509 27.98 25.5966 27.593C25.3373 26.9421 24.4014 26.5903 23.7845 26.8014C23.1396 27.0265 22.5998 27.7689 22.6769 28.4374C22.7015 28.638 22.747 28.8385 22.8031 29.0391C22.9889 29.7358 23.3429 30.3128 23.9002 30.7702C24.4225 31.1994 25.0253 31.4563 25.6773 31.5689C26.0138 31.6287 26.3572 31.6709 26.7113 31.6005C27.0688 31.5337 27.4228 31.4668 27.7488 31.305C28.611 30.8792 29.27 30.2494 29.7712 29.4156C30.0936 28.8808 30.2619 28.3389 30.2163 27.7267C30.1813 27.2165 30.0025 26.8049 29.4557 26.6395C28.9054 26.4741 28.3727 26.6254 28.0712 27.0688C27.9275 27.2799 27.8784 27.5262 27.9906 27.7654C28.1063 28.0152 28.3446 28.0786 28.6005 28.075C28.923 28.075 29.0386 27.8886 28.9089 27.5789C28.8423 27.4241 28.9159 27.3151 29.0386 27.2377C29.1578 27.1638 29.2735 27.2201 29.3401 27.3186C29.5048 27.5684 29.5258 28.1384 29.1858 28.3917C28.9159 28.5923 28.639 28.6169 28.3061 28.5536C27.7698 28.448 27.3036 27.8921 27.4648 27.2658C27.6121 26.7064 27.9591 26.3827 28.4673 26.154L28.4743 26.1364Z" fill="url(#paint0_linear_1_1684)"/>
  <path d="M31.1802 10.2505C31.2959 9.82472 31.359 9.39899 31.2468 8.96622C31.2188 8.85363 31.2679 8.77271 31.3695 8.74456C31.4747 8.71641 31.5272 8.76215 31.5518 8.87826C31.6429 9.27584 31.6219 9.66991 31.5623 10.071C31.5062 10.4334 31.4081 10.7747 31.2573 11.109C31.026 11.6262 30.6264 11.9921 30.2093 12.3475C29.5083 12.9491 28.7477 13.4839 28.1659 14.2193C27.8784 14.5817 27.6436 14.9617 27.7172 15.4613C27.7628 15.7603 28.1554 16.1931 28.4463 16.2389C28.6706 16.274 29.0351 16.0313 29.1298 15.7779C29.2174 15.5528 29.1578 15.3311 28.9931 15.2502C28.8003 15.1552 28.4463 15.2396 28.3586 15.4226C28.2956 15.5563 28.2009 15.595 28.0993 15.5246C27.9976 15.4542 28.0187 15.3417 28.0888 15.2361C28.1729 15.1094 28.285 15.0355 28.4182 14.9687C28.8634 14.7506 29.4032 14.9933 29.5048 15.4683C29.5504 15.6759 29.4522 15.8589 29.3576 16.0348C29.1894 16.355 28.6881 16.6189 28.3867 16.5485C28.0327 16.4676 27.7628 16.2565 27.577 15.9468C27.2756 15.4437 27.3422 14.9441 27.6191 14.4585C27.9556 13.8639 28.4533 13.4171 28.9545 12.9702C28.9896 12.9386 29.0141 12.8998 29.0632 12.8436C28.7617 12.8787 28.5094 12.9773 28.243 12.9737C28.1448 12.9737 28.0362 12.9843 28.0362 12.8365C28.0362 12.7028 28.1238 12.6711 28.2395 12.6571C28.8844 12.5867 29.4943 12.4178 30.0376 12.0413C30.332 11.8373 30.5213 11.5417 30.672 11.2286C30.8262 10.9119 30.8788 10.5636 30.8367 10.2118C30.7736 9.67695 30.5738 9.22659 30.0726 8.95215C29.6029 8.6953 29.0001 8.83956 28.625 9.13511C28.4813 9.2477 28.4498 9.50103 28.5374 9.65936C28.7337 10.0042 29.0386 10.2082 29.4207 10.2927C29.5854 10.3279 29.7116 10.2258 29.8168 10.1097C29.8448 10.0781 29.8658 10.0323 29.8798 9.99361C30.0236 9.65584 30.0306 9.4764 29.5784 9.52214C29.4803 9.53269 29.3611 9.56084 29.3471 9.39899C29.3331 9.2301 29.4417 9.20548 29.5714 9.20899C29.7502 9.21251 29.9324 9.17029 30.0936 9.29344C30.2584 9.4201 30.325 9.69806 30.2654 9.85639C30.1778 10.0816 30.1182 10.3173 29.9044 10.4686C29.5679 10.7079 29.2279 10.6164 28.9124 10.4475C28.625 10.2927 28.3657 10.0816 28.2465 9.75787C28.1063 9.3814 28.1799 9.02955 28.5094 8.81845C28.9089 8.5616 29.3436 8.44549 29.8062 8.52641C30.3145 8.61086 30.679 8.92048 30.9209 9.37788C31.0646 9.65232 31.1522 9.94083 31.1872 10.2505H31.1802Z" fill="url(#paint1_linear_1_1684)"/>
  <path d="M35.0334 11.0107C35.0439 11.1655 35.0054 11.2429 34.8827 11.2535C34.76 11.264 34.7425 11.1937 34.7215 11.0881C34.5813 10.3035 34.4551 9.51537 34.031 8.81872C33.8663 8.54779 33.691 8.29095 33.3685 8.17836C33.2774 8.14669 33.2073 8.07632 33.2424 7.95318C33.2774 7.83355 33.379 7.86522 33.4491 7.87929C33.7331 7.93558 33.9258 8.1291 34.0941 8.34724C34.4095 8.75186 34.5918 9.21982 34.7425 9.70888C34.8792 10.1522 34.9318 10.6096 35.0299 11.0107H35.0334Z" fill="url(#paint2_linear_1_1684)"/>
  <path d="M32.3999 5.40963C32.3999 5.50111 32.3999 5.59259 32.3999 5.68407C32.4034 5.79666 32.3754 5.87406 32.2422 5.87406C32.1125 5.87406 32.081 5.8037 32.0845 5.68759C32.1335 4.4702 31.4956 3.68207 30.5002 3.1156C30.3985 3.05579 30.3144 2.9819 30.367 2.85875C30.4301 2.7145 30.5668 2.77783 30.6474 2.82357C31.2362 3.15782 31.741 3.58707 32.0704 4.18873C32.2772 4.5652 32.4104 4.96982 32.3999 5.41315V5.40963Z" fill="url(#paint3_linear_1_1684)"/>
  <path d="M34.2712 24.5987C34.2221 24.8801 34.131 25.1686 34.0188 25.4431C33.7349 26.1257 33.3388 26.7344 32.778 27.2269C32.3539 27.5999 31.8632 27.8462 31.3409 28.0397C31.2288 28.0819 31.1236 28.0397 31.0921 27.9306C31.0605 27.8216 31.1411 27.7653 31.2428 27.7301C31.9508 27.4873 32.5572 27.0897 33.0304 26.4986C33.43 25.9955 33.7209 25.4431 33.8856 24.8203C33.9066 24.7324 33.9557 24.6585 33.9592 24.5635C33.9592 24.4474 34.0153 24.3664 34.1485 24.3735C34.3027 24.3805 34.2642 24.4966 34.2747 24.6022L34.2712 24.5987Z" fill="url(#paint4_linear_1_1684)"/>
  <path d="M44.8506 18.7093V18.1358C46.1544 18.0127 46.3157 17.9107 46.3157 16.5631V6.7818C46.3157 5.53627 46.214 5.41313 44.9101 5.25128V4.71999C46.0107 4.59684 47.2691 4.26963 47.921 4.02686V16.5666C47.921 17.9142 48.0437 18.0162 49.3651 18.1394V18.7129H44.847L44.8506 18.7093Z" fill="#4D2783"/>
  <path d="M58.3391 10.2957C57.2806 10.4575 57.0562 10.6229 56.548 11.7875C56.0398 12.931 55.4895 14.3208 54.0874 17.8744C52.766 21.143 52.398 22.4097 52.072 23.4723C51.9494 23.9015 51.725 24.0035 51.4622 24.0035C50.8102 24.0035 50.2214 23.5321 50.2214 23.0219C50.2214 22.758 50.3651 22.5715 50.67 22.3077C51.3219 21.7975 51.7881 21.3084 52.0335 20.7947C52.4611 19.9362 52.766 19.222 52.8677 18.9546C52.9483 18.6485 52.9483 18.4655 52.8256 18.1172C52.0335 15.788 50.9329 13.2758 50.323 11.8051C49.8744 10.6827 49.6921 10.4364 48.574 10.2921V9.73975H52.6854V10.2921C51.7496 10.4364 51.6479 10.6405 51.9108 11.3969L53.8842 16.4213C54.4555 15.0104 55.2687 12.7445 55.6963 11.4567C55.9416 10.6792 55.7979 10.4575 54.6167 10.2921V9.73975H58.3391V10.2921V10.2957Z" fill="#4D2783"/>
  <path d="M62.1622 18.7089V18.1354C63.0385 18.0333 63.2207 17.8891 62.8737 17.3402L61.349 14.9512C60.9004 15.6865 60.4552 16.4008 60.0451 17.115C59.6596 17.8081 59.6981 17.9946 60.7567 18.1354V18.7089H56.9116V18.1354C58.1945 17.9735 58.4574 17.8293 59.2109 16.8265C59.7823 16.0313 60.3115 15.2326 60.9214 14.3143L59.1724 11.5559C58.5625 10.5742 58.3172 10.4335 57.178 10.2892V9.73682H61.2684V10.2892C60.4132 10.4124 60.3326 10.5742 60.6971 11.1688L61.9169 13.0266C62.3024 12.4355 62.709 11.7388 63.077 11.1266C63.424 10.5531 63.3014 10.3912 62.4251 10.2892V9.73682H66.1299V10.2892C65.0293 10.4124 64.6052 10.4933 63.7886 11.5559C63.5046 11.9429 63.0139 12.6184 62.3445 13.6388L64.2968 16.6611C65.0714 17.7835 65.2922 17.97 66.5365 18.1318V18.7053H62.1622V18.7089Z" fill="#4D2783"/>
  <path d="M73.2123 16.9743C71.9084 18.6068 70.4853 18.9552 69.8334 18.9552C67.3518 18.9552 65.8446 16.9109 65.8446 14.5641C65.8446 13.1743 66.3318 11.8866 67.166 10.9894C68.0213 10.0288 69.1394 9.49756 70.1979 9.49756C71.968 9.49756 73.3104 11.0281 73.3104 12.6642C73.2894 13.0723 73.2298 13.2553 72.9038 13.3397C72.4972 13.4206 69.893 13.6036 67.471 13.688C67.4114 16.4254 69.0798 17.5478 70.5239 17.5478C71.3581 17.5478 72.1327 17.1994 72.8828 16.5063L73.2087 16.9778L73.2123 16.9743ZM69.7107 10.2751C68.7748 10.2751 67.86 11.1547 67.5726 12.8084C68.7118 12.8084 69.8509 12.8084 71.0531 12.7486C71.4212 12.7486 71.5403 12.6466 71.5403 12.3405C71.5614 11.2568 70.8498 10.2787 69.7072 10.2787L69.7107 10.2751Z" fill="#4D2783"/>
  <path d="M73.2091 18.7084V18.1349C74.513 18.0117 74.6742 17.9097 74.6742 16.5621V6.78083C74.6742 5.53529 74.5726 5.41215 73.2722 5.2503V4.71901C74.3728 4.59587 75.6346 4.26865 76.283 4.02588V16.5656C76.283 17.9132 76.4057 18.0152 77.7271 18.1384V18.7119H73.2091V18.7084Z" fill="#4D2783"/>
  <path d="M91.77 10.6019C90.347 10.7638 90.1016 11.1332 89.4286 12.1325C88.8994 12.91 88.3491 13.7263 87.6165 14.8276C88.4928 15.665 90.4872 17.8711 91.076 18.8738L90.9533 19.099C89.8352 18.997 88.6961 18.5255 88.4507 18.2616C88.2054 17.9766 87.231 17.0372 86.579 16.3405C85.0929 18.3214 83.7504 18.997 82.2853 18.997C79.66 18.997 78.2159 17.0759 78.2159 15.2991C78.237 13.3991 79.3165 12.6426 81.2688 11.3971C80.2909 10.5597 79.6811 9.62029 79.6811 8.4979C79.7021 6.65775 81.2268 5.27148 83.0599 5.27148C84.7494 5.27148 86.0918 6.43609 86.0918 8.08976C86.0708 8.92715 85.6642 9.53936 85.2156 9.9088C84.83 10.2149 84.2201 10.6019 83.4665 11.0523C84.1395 11.6258 85.8079 13.0121 87.1083 14.2998C87.578 13.5645 87.9846 12.8889 88.3701 11.9706C88.7557 11.0312 88.5944 10.7638 87.1083 10.6019V10.0108H91.7665V10.6019H91.77ZM82.776 17.5896C84.1816 17.5896 84.9737 17.1392 86.0533 15.7705C84.9947 14.5848 83.5717 13.3815 81.8191 11.8897C80.3751 12.8502 79.9685 13.7298 79.9685 14.7713C79.9685 16.6924 81.4546 17.5896 82.776 17.5896ZM82.8356 5.98573C81.8191 5.98573 81.1882 6.7809 81.1882 7.98773C81.1882 9.02919 81.7175 9.66251 82.9373 10.6442C84.0764 9.82788 84.5636 9.17345 84.5636 8.13198C84.5426 6.94627 83.9537 5.98573 82.8356 5.98573Z" fill="#4D2783"/>
  <path d="M97.36 18.7086V18.135C98.5798 18.0119 98.7025 17.9099 98.7025 16.6643V5.90139C98.3344 5.349 97.5843 5.00419 96.8693 5.00419C96.2174 5.00419 95.7687 5.3314 95.4638 5.71843C95.0957 6.18991 94.8118 7.21026 94.8118 8.76189V9.74354H96.9675C97.0901 9.9265 96.9885 10.4367 96.7642 10.5809H94.8118V16.6679C94.8118 17.9134 94.9941 18.0154 96.2559 18.1386V18.7121H91.7379V18.1386C93.0418 17.9943 93.203 17.9134 93.203 16.6679V10.5809H91.7589L91.6993 10.3346L92.148 9.74354H93.2065C93.2065 8.63875 93.3292 8.11098 93.4519 7.6184C93.6552 6.98508 94.0618 5.94362 95.2009 5.04289C95.993 4.40957 96.7887 4.12458 97.6229 4.02254C98.2328 4.00143 98.9058 4.14569 99.3123 4.40957C99.6383 4.32865 99.8626 4.2055 100.147 4.04013L100.35 4.12106C100.308 4.8353 100.308 5.53196 100.308 6.2462V16.6643C100.308 17.9099 100.451 18.0119 101.773 18.135V18.7086H97.3565H97.36Z" fill="#4D2783"/>
  <path d="M108.265 18.9544C107.96 18.9544 107.511 18.7925 107.308 18.5673C107.045 18.3034 106.923 18.0149 106.821 17.649C106.008 18.2014 105.009 18.9579 104.378 18.9579C102.934 18.9579 101.896 17.7511 101.896 16.4457C101.896 15.4465 102.447 14.792 103.565 14.4015C104.806 13.9722 106.334 13.441 106.779 13.075V12.6669C106.779 11.2173 106.046 10.3799 104.988 10.3799C104.518 10.3799 104.234 10.6051 104.031 10.8514C103.807 11.1364 103.663 11.5867 103.481 12.1778C103.379 12.505 103.197 12.6493 102.892 12.6493C102.506 12.6493 101.998 12.2412 101.998 11.7521C101.998 11.4671 102.261 11.2208 102.671 10.9358C103.26 10.5066 104.441 9.7501 105.601 9.50732C106.211 9.50732 106.842 9.69028 107.312 10.0597C108.023 10.6719 108.349 11.3686 108.349 12.4276V16.3683C108.349 17.3077 108.696 17.5927 109.061 17.5927C109.306 17.5927 109.569 17.4907 109.793 17.3675L109.997 17.941L108.269 18.9614L108.265 18.9544ZM106.779 13.7858C106.33 14.0109 105.356 14.4402 104.886 14.6443C104.112 14.9926 103.645 15.3796 103.645 16.1361C103.645 17.2198 104.459 17.7088 105.111 17.7088C105.64 17.7088 106.372 17.3816 106.779 16.9735V13.7858Z" fill="#4D2783"/>
  <path d="M121.003 18.7082V18.1347C122.205 18.0116 122.345 17.9307 122.345 16.5022V13.0893C122.345 11.6397 121.858 10.7213 120.596 10.7213C119.821 10.7213 119.11 11.1506 118.339 11.7839C118.36 12.0302 118.398 12.273 118.398 12.6635V16.6253C118.398 17.9131 118.581 18.0151 119.702 18.1382V18.7117H115.349V18.1382C116.611 18.0151 116.793 17.9342 116.793 16.5866V13.0717C116.793 11.5587 116.323 10.7213 115.083 10.7213C114.269 10.7213 113.474 11.2737 112.843 11.7839V16.5831C112.843 17.9307 112.987 18.0116 114.147 18.1347V18.7082H109.772V18.1347C111.115 18.0116 111.238 17.9307 111.238 16.5831V12.3539C111.238 11.045 111.157 10.9641 110.018 10.76V10.2499C110.975 10.1056 111.932 9.84173 112.846 9.43359V11.0873C113.274 10.76 113.702 10.4117 114.354 10.0247C114.862 9.69748 115.31 9.49341 115.962 9.49341C116.94 9.49341 117.775 10.1056 118.181 11.1682C118.752 10.7178 119.282 10.373 119.79 10.0247C120.239 9.7397 120.806 9.49341 121.399 9.49341C122.987 9.49341 123.964 10.6369 123.964 12.6389V16.5796C123.964 17.9482 124.087 18.0081 125.247 18.1312V18.7047H121.013L121.003 18.7082Z" fill="#4D2783"/>
  <path d="M125.415 18.7082V18.1347C126.698 18.0115 126.838 17.9095 126.838 16.5197V12.3116C126.838 11.045 126.779 10.9641 125.555 10.76V10.2709C126.614 10.088 127.571 9.82057 128.443 9.45465V16.5232C128.443 17.913 128.587 18.015 129.909 18.1382V18.7117H125.412L125.415 18.7082ZM127.532 7.45265C126.961 7.45265 126.453 6.94248 126.453 6.36897C126.453 5.71454 126.961 5.24658 127.553 5.24658C128.146 5.24658 128.591 5.71805 128.591 6.36897C128.591 6.94248 128.121 7.45265 127.532 7.45265Z" fill="#4D2783"/>
  <path d="M135.772 18.7086V18.1351C136.953 18.012 137.076 17.8712 137.076 16.4814V13.1108C137.076 11.6823 136.567 10.7217 135.225 10.7217C134.391 10.7217 133.599 11.2108 132.968 11.7843V16.5659C132.968 17.9768 133.09 18.0155 134.289 18.1386V18.7121H129.894V18.1386C131.236 17.9944 131.359 17.9134 131.359 16.5659V12.3578C131.359 11.0314 131.215 10.968 130.118 10.7851V10.2538C131.114 10.0919 132.113 9.82453 132.968 9.4375V11.0525C133.374 10.7675 133.823 10.4614 134.352 10.113C134.924 9.74361 135.453 9.50083 136.042 9.50083C137.668 9.50083 138.688 10.7077 138.688 12.6885V16.5694C138.688 17.9592 138.811 18.019 139.992 18.1421V18.7157H135.779L135.772 18.7086Z" fill="#4D2783"/>
  <path d="M142.848 15.7281C142.361 16.1151 142.175 16.5057 142.175 16.7485C142.175 17.1179 142.522 17.526 143.437 17.526C144.191 17.526 145.046 17.5049 145.715 17.5049C147.019 17.5049 148.688 17.9342 148.688 19.9573C148.688 22.0824 146.185 24.0844 143.479 24.0844C141.18 24.0844 139.939 22.7369 139.897 21.53C139.897 21.0797 140.079 20.6926 140.405 20.3654C140.812 19.9362 141.607 19.2606 142.074 18.8947C141.341 18.6906 140.812 18.2192 140.549 17.7899C140.367 17.4838 140.303 17.1144 140.303 16.9103C141.078 16.6253 141.769 16.0518 142.175 15.4994L142.848 15.7246V15.7281ZM143.826 15.9322C141.933 15.9322 140.367 14.7676 140.367 12.8465C140.367 10.5173 142.442 9.43359 144.029 9.43359C144.702 9.43359 145.372 9.61655 145.982 9.94377C146.918 9.94377 148.137 9.78192 148.709 9.63766L148.831 9.82062C148.709 10.1478 148.383 10.7178 148.078 10.9043C147.773 10.9043 147.1 10.8234 146.816 10.8023C147.163 11.2737 147.405 11.9247 147.405 12.66C147.405 14.8872 145.572 15.9287 143.823 15.9287L143.826 15.9322ZM144.296 18.9545C143.3 18.9545 142.852 19.0777 142.484 19.3838C141.912 19.8552 141.506 20.4675 141.506 21.0586C141.506 22.1809 142.666 23.0183 144.233 23.0183C146.167 23.0183 147.265 22.0191 147.265 20.7102C147.265 20.0171 146.939 19.4647 146.371 19.2184C145.862 18.9932 145.151 18.9545 144.296 18.9545ZM143.826 10.088C142.911 10.088 142.098 10.9254 142.098 12.5404C142.098 14.1554 142.911 15.2777 144.033 15.2777C144.927 15.2355 145.722 14.4826 145.722 12.8254C145.722 11.1682 144.969 10.088 143.83 10.088H143.826Z" fill="#4D2783"/>
  <path d="M152.944 9.49756C155.489 9.49756 157.381 11.4397 157.381 14.0715C157.381 17.3824 154.938 18.9552 152.944 18.9552C150.136 18.9552 148.426 16.6893 148.426 14.3988C148.426 11.0703 151.009 9.49756 152.944 9.49756ZM152.699 10.1907C151.458 10.1907 150.34 11.3975 150.34 13.7654C150.34 16.3585 151.479 18.2374 153.147 18.2374C154.409 18.2374 155.468 17.3191 155.468 14.5184C155.468 12.1294 154.49 10.1872 152.699 10.1872V10.1907Z" fill="#4D2783"/>
  <path d="M72.0029 25.5702C72.6163 25.6722 73.114 25.9678 73.114 26.587C73.114 27.0233 72.8722 27.3681 72.4971 27.5722C72.1641 27.7587 71.8417 27.822 71.393 27.822H69.8228V27.6426C70.366 27.5898 70.3976 27.5335 70.3976 27.0268V24.4619C70.3976 23.9306 70.3415 23.8848 69.8228 23.8391V23.6597H71.4947C71.9749 23.6597 72.2728 23.7441 72.4761 23.8849C72.7004 24.0397 72.8511 24.2754 72.8511 24.6026C72.8511 25.2043 72.3604 25.4787 72.0029 25.5702ZM71.2703 25.4928C71.9714 25.4928 72.2588 25.2113 72.2588 24.6871C72.2588 24.2402 71.9854 23.8954 71.372 23.8954C71.1932 23.8954 71.0776 23.913 71.0145 23.9587C70.9619 23.9974 70.9444 24.0678 70.9444 24.2719V25.4963H71.2703V25.4928ZM70.9444 27.0163C70.9444 27.4772 71.053 27.5933 71.5052 27.5933C72.0029 27.5933 72.4866 27.3259 72.4866 26.6539C72.4866 25.9818 72.0274 25.718 71.2493 25.718H70.9444V27.0198V27.0163Z" fill="#4D2783"/>
  <path d="M76.6412 27.6779C76.3363 27.7236 75.9893 27.808 75.6668 27.903V27.4105C75.3233 27.699 75.0429 27.903 74.6924 27.903C74.2648 27.903 73.8967 27.6392 73.8967 26.9425V25.7005C73.8967 25.3557 73.8442 25.317 73.6865 25.2853L73.5077 25.2536V25.0883C73.7811 25.0742 74.2017 25.0109 74.419 24.9722C74.4015 25.1762 74.4015 25.4823 74.4015 25.9081V26.7771C74.4015 27.3401 74.6959 27.5019 74.9833 27.5019C75.2182 27.5019 75.4565 27.3999 75.6738 27.1958V25.704C75.6738 25.3592 75.5967 25.3135 75.3794 25.2818L75.1761 25.2572V25.0918C75.5827 25.0742 76.0313 25.0003 76.1785 24.9757V27.1219C76.1785 27.4421 76.2311 27.4843 76.473 27.4984L76.6517 27.5055V27.6849L76.6412 27.6779Z" fill="#4D2783"/>
  <path d="M76.9513 27.8251V27.6456C77.3509 27.6069 77.3964 27.5753 77.3964 27.139V25.8196C77.3964 25.422 77.3789 25.3973 76.9969 25.334V25.1792C77.3298 25.1229 77.6278 25.0385 77.9012 24.9223V27.139C77.9012 27.5753 77.9467 27.6069 78.3603 27.6456V27.8251H76.9513ZM77.6138 24.2961C77.435 24.2961 77.2738 24.1377 77.2738 23.9583C77.2738 23.7542 77.4315 23.6064 77.6173 23.6064C77.803 23.6064 77.9432 23.7542 77.9432 23.9583C77.9432 24.1377 77.796 24.2961 77.6102 24.2961H77.6138Z" fill="#4D2783"/>
  <path d="M78.6255 27.8258V27.6463C79.032 27.6076 79.0846 27.576 79.0846 27.1537V24.0857C79.0846 23.6951 79.0531 23.6564 78.643 23.6071V23.4418C78.9865 23.4031 79.3825 23.301 79.5858 23.2236V27.1537C79.5858 27.576 79.6244 27.6076 80.038 27.6463V27.8258H78.6219H78.6255Z" fill="#4D2783"/>
  <path d="M83.4583 27.6635C83.3251 27.6882 82.845 27.7656 82.4699 27.8993V27.4841C82.3542 27.5545 82.1895 27.6424 82.0738 27.7128C81.818 27.8606 81.6462 27.8993 81.5726 27.8993C81.0609 27.8993 80.3844 27.3891 80.3844 26.4919C80.3844 25.5947 81.1625 24.9367 82.0353 24.9367C82.1264 24.9367 82.3367 24.9508 82.4699 25.0071V24.0642C82.4699 23.656 82.4243 23.6419 81.9722 23.6032V23.4379C82.2912 23.3921 82.7398 23.3042 82.9746 23.2197V27.0795C82.9746 27.4137 83.0202 27.4559 83.255 27.47L83.4583 27.4841V27.6635ZM82.4699 25.5138C82.3227 25.2886 82.0493 25.1865 81.8004 25.1865C81.4955 25.1865 80.9522 25.3906 80.9522 26.3124C80.9522 27.0865 81.4289 27.4946 81.839 27.5017C82.0703 27.5017 82.3192 27.3856 82.4699 27.2695V25.5102V25.5138Z" fill="#4D2783"/>
  <path d="M83.7546 27.8251V27.6456C84.1577 27.6069 84.1998 27.5753 84.1998 27.139V25.8196C84.1998 25.422 84.1823 25.3973 83.8002 25.334V25.1792C84.1332 25.1229 84.4311 25.0385 84.7045 24.9223V27.139C84.7045 27.5753 84.7501 27.6069 85.1637 27.6456V27.8251H83.7546ZM84.4206 24.2961C84.2418 24.2961 84.0806 24.1377 84.0806 23.9583C84.0806 23.7542 84.2383 23.6064 84.4241 23.6064C84.6099 23.6064 84.7501 23.7542 84.7501 23.9583C84.7501 24.1377 84.6029 24.2961 84.4171 24.2961H84.4206Z" fill="#4D2783"/>
  <path d="M87.3197 27.8257V27.6462C87.6912 27.6075 87.7263 27.5618 87.7263 27.1255V26.07C87.7263 25.6231 87.5686 25.3205 87.1445 25.3205C86.8851 25.3205 86.6362 25.4754 86.4364 25.6548V27.1536C86.4364 27.5935 86.475 27.6075 86.85 27.6462V27.8257H85.4725V27.6462C85.8931 27.6005 85.9317 27.5759 85.9317 27.1536V25.8342C85.9317 25.4191 85.8861 25.3979 85.5426 25.3416V25.1763C85.8546 25.127 86.1665 25.0426 86.4364 24.9194V25.4261C86.5626 25.3346 86.7028 25.2396 86.8711 25.1305C87.0498 25.0144 87.2146 24.937 87.4003 24.937C87.9121 24.937 88.231 25.3135 88.231 25.9363V27.1536C88.231 27.5899 88.2696 27.6075 88.6376 27.6462V27.8257H87.3162H87.3197Z" fill="#4D2783"/>
  <path d="M89.8537 26.8894C89.6995 27.009 89.6434 27.1322 89.6434 27.2096C89.6434 27.3221 89.7521 27.4523 90.0395 27.4523C90.2743 27.4523 90.5442 27.4453 90.7545 27.4453C91.1611 27.4453 91.6869 27.579 91.6869 28.2123C91.6869 28.8773 90.9017 29.5036 90.0535 29.5036C89.3315 29.5036 88.9424 29.0814 88.9319 28.7049C88.9319 28.5642 88.988 28.4445 89.0896 28.3425C89.2158 28.2088 89.4646 27.9977 89.6119 27.8816C89.3805 27.8182 89.2158 27.6705 89.1317 27.5368C89.0756 27.4418 89.0546 27.3257 89.0546 27.2623C89.2964 27.1744 89.5137 26.9949 89.6399 26.819L89.8502 26.8894H89.8537ZM90.1587 26.9527C89.5663 26.9527 89.0756 26.5903 89.0756 25.9851C89.0756 25.2533 89.7275 24.9155 90.2252 24.9155C90.4355 24.9155 90.6459 24.9718 90.8386 25.0739C91.1331 25.0739 91.5151 25.0246 91.6939 24.9789L91.7324 25.0352C91.6939 25.1372 91.5922 25.3166 91.4941 25.3764C91.3994 25.3764 91.1891 25.3483 91.098 25.3448C91.2067 25.4926 91.2838 25.6966 91.2838 25.9288C91.2838 26.6255 90.7089 26.9527 90.1622 26.9527H90.1587ZM90.3059 27.8992C89.9939 27.8992 89.8537 27.9379 89.738 28.0329C89.5593 28.1806 89.4331 28.3706 89.4331 28.5571C89.4331 28.909 89.7976 29.1729 90.2883 29.1729C90.8947 29.1729 91.2382 28.8597 91.2382 28.448C91.2382 28.2299 91.1366 28.0575 90.9578 27.9801C90.8001 27.9097 90.5758 27.8957 90.3059 27.8957V27.8992ZM90.1587 25.1196C89.8712 25.1196 89.6154 25.38 89.6154 25.8866C89.6154 26.3933 89.8712 26.7451 90.2217 26.7451C90.5022 26.731 90.751 26.4953 90.751 25.9746C90.751 25.4538 90.5162 25.1196 90.1587 25.1196Z" fill="#4D2783"/>
  <path d="M96.2897 24.6619C96.2336 24.4824 96.181 24.3276 96.0934 24.1869C95.9742 23.9687 95.8761 23.9195 95.5186 23.9195H94.8351C94.6493 23.9195 94.6318 23.9371 94.6318 24.1235V25.6013H95.424C95.8831 25.6013 95.9147 25.5239 96.0093 25.077H96.2021V26.414H96.0023C95.9182 25.9672 95.8761 25.8652 95.424 25.8652H94.6318V27.0087C94.6318 27.5646 94.6949 27.5927 95.2767 27.642V27.8214H93.5032V27.642C94.0184 27.6033 94.078 27.5575 94.078 27.0087V24.4719C94.078 23.9159 94.0149 23.8913 93.5032 23.8385V23.6591H95.5256C96.1004 23.6591 96.3142 23.6521 96.4229 23.645C96.4299 23.8772 96.4544 24.3241 96.486 24.6302L96.2897 24.6548V24.6619Z" fill="#4D2783"/>
  <path d="M98.3025 24.937C99.0982 24.937 99.694 25.5457 99.694 26.3725C99.694 27.4105 98.9264 27.9031 98.3025 27.9031C97.4228 27.9031 96.8865 27.1923 96.8865 26.4746C96.8865 25.4296 97.6961 24.937 98.3025 24.937ZM98.2254 25.1552C97.8363 25.1552 97.4858 25.5351 97.4858 26.2775C97.4858 27.0903 97.8434 27.6779 98.3656 27.6779C98.7617 27.6779 99.0912 27.3894 99.0912 26.5133C99.0912 25.7638 98.7862 25.1552 98.2219 25.1552H98.2254Z" fill="#4D2783"/>
  <path d="M101.567 27.8261H100.102V27.6466C100.505 27.6079 100.54 27.5763 100.54 27.1611V25.8311C100.54 25.4089 100.516 25.3878 100.144 25.3456V25.1837C100.456 25.1344 100.743 25.057 101.041 24.9233V25.627C101.266 25.2928 101.532 24.9409 101.851 24.9409C102.086 24.9409 102.222 25.0887 102.222 25.247C102.222 25.3948 102.121 25.5355 102.005 25.5989C101.942 25.6376 101.89 25.6305 101.84 25.5848C101.746 25.4898 101.669 25.4265 101.553 25.4265C101.42 25.4265 101.181 25.6235 101.041 25.9507V27.154C101.041 27.5763 101.073 27.6079 101.564 27.6466V27.8261H101.567Z" fill="#4D2783"/>
  <path d="M107.398 24.6697C107.342 24.4656 107.265 24.2545 107.195 24.1384C107.094 23.966 107.03 23.9202 106.68 23.9202H106.042V27.0376C106.042 27.5372 106.091 27.6076 106.697 27.6463V27.8257H104.84V27.6463C105.432 27.6076 105.485 27.5443 105.485 27.0376V23.9202H104.903C104.552 23.9202 104.451 23.9589 104.342 24.1525C104.265 24.2791 104.212 24.4339 104.132 24.6697H103.939C103.978 24.2791 104.016 23.878 104.034 23.5156H104.181C104.275 23.6704 104.346 23.6634 104.524 23.6634H107.051C107.23 23.6634 107.283 23.6353 107.377 23.5156H107.532C107.532 23.8182 107.556 24.2791 107.588 24.6486L107.395 24.6662L107.398 24.6697Z" fill="#4D2783"/>
  <path d="M109.719 27.8257V27.6462C110.091 27.6075 110.14 27.5759 110.14 27.1536V26.1051C110.14 25.5739 109.937 25.3065 109.509 25.31C109.267 25.31 109.011 25.4296 108.833 25.6442V27.1572C108.833 27.5723 108.885 27.611 109.267 27.6497V27.8292H107.876V27.6497C108.247 27.6181 108.328 27.5864 108.328 27.1572V24.0715C108.328 23.7337 108.31 23.6493 107.883 23.6106V23.4452C108.219 23.4135 108.605 23.3185 108.833 23.2271V25.412C109.064 25.1798 109.414 24.9441 109.758 24.9441C110.28 24.9441 110.645 25.2713 110.645 26.0383V27.1642C110.645 27.5864 110.694 27.6181 111.065 27.6497V27.8292H109.719V27.8257Z" fill="#4D2783"/>
  <path d="M113.742 27.2802C113.335 27.7904 112.887 27.903 112.683 27.903C111.905 27.903 111.432 27.2626 111.432 26.5272C111.432 26.091 111.586 25.6899 111.849 25.4084C112.116 25.1093 112.47 24.9404 112.799 24.9404C113.353 24.9404 113.774 25.4225 113.774 25.9326C113.767 26.0593 113.749 26.1191 113.644 26.1437C113.518 26.1684 112.701 26.2282 111.94 26.2528C111.923 27.1113 112.445 27.4632 112.897 27.4632C113.157 27.4632 113.402 27.3541 113.637 27.1359L113.738 27.2837L113.742 27.2802ZM112.645 25.1797C112.35 25.1797 112.063 25.4576 111.975 25.9749C112.333 25.9749 112.69 25.9749 113.065 25.9573C113.181 25.9573 113.22 25.9256 113.22 25.8306C113.227 25.4893 113.002 25.1832 112.645 25.1832V25.1797Z" fill="#4D2783"/>
  <path d="M118.501 24.6619C118.445 24.4824 118.393 24.3276 118.305 24.1869C118.186 23.9687 118.088 23.9195 117.73 23.9195H117.047C116.861 23.9195 116.844 23.9371 116.844 24.1235V25.6013H117.636C118.095 25.6013 118.126 25.5239 118.221 25.077H118.414V26.414H118.214C118.13 25.9672 118.088 25.8652 117.636 25.8652H116.844V27.0087C116.844 27.5646 116.907 27.5927 117.489 27.642V27.8214H115.715V27.642C116.23 27.6033 116.29 27.5575 116.29 27.0087V24.4719C116.29 23.9159 116.227 23.8913 115.715 23.8385V23.6591H117.737C118.312 23.6591 118.526 23.6521 118.635 23.645C118.642 23.8772 118.666 24.3241 118.698 24.6302L118.501 24.6548V24.6619Z" fill="#4D2783"/>
  <path d="M122.125 27.6779C121.82 27.7236 121.473 27.808 121.147 27.903V27.4105C120.804 27.699 120.523 27.903 120.173 27.903C119.745 27.903 119.377 27.6392 119.377 26.9425V25.7005C119.377 25.3557 119.328 25.317 119.167 25.2853L118.988 25.2536V25.0883C119.262 25.0742 119.682 25.0109 119.899 24.9722C119.882 25.1762 119.882 25.4823 119.882 25.9081V26.7771C119.882 27.3401 120.176 27.5019 120.464 27.5019C120.699 27.5019 120.937 27.3999 121.151 27.1958V25.704C121.151 25.3592 121.074 25.3135 120.856 25.2818L120.653 25.2572V25.0918C121.06 25.0742 121.508 25.0003 121.652 24.9757V27.1219C121.652 27.4421 121.705 27.4843 121.946 27.4984L122.125 27.5055V27.6849V27.6779Z" fill="#4D2783"/>
  <path d="M123.693 27.8186C123.584 27.8749 123.483 27.903 123.42 27.903C123.013 27.903 122.796 27.6532 122.796 27.1395V25.2747H122.354L122.329 25.1973L122.501 25.0108H122.796V24.4725C122.915 24.3458 123.101 24.177 123.223 24.0503L123.318 24.0609C123.304 24.3283 123.3 24.7012 123.3 25.0073H124.026C124.082 25.0706 124.064 25.2114 123.987 25.2677H123.3V26.9073C123.3 27.428 123.504 27.523 123.672 27.523C123.826 27.523 123.97 27.4667 124.061 27.421L124.117 27.5863L123.696 27.8115L123.693 27.8186Z" fill="#4D2783"/>
  <path d="M127.376 27.6779C127.071 27.7236 126.724 27.808 126.398 27.903V27.4105C126.054 27.699 125.774 27.903 125.423 27.903C124.996 27.903 124.628 27.6392 124.628 26.9425V25.7005C124.628 25.3557 124.579 25.317 124.418 25.2853L124.239 25.2536V25.0883C124.512 25.0742 124.933 25.0109 125.15 24.9722C125.133 25.1762 125.133 25.4823 125.133 25.9081V26.7771C125.133 27.3401 125.427 27.5019 125.714 27.5019C125.949 27.5019 126.188 27.3999 126.401 27.1958V25.704C126.401 25.3592 126.324 25.3135 126.107 25.2818L125.904 25.2572V25.0918C126.31 25.0742 126.759 25.0003 126.903 24.9757V27.1219C126.903 27.4421 126.955 27.4843 127.197 27.4984L127.376 27.5055V27.6849V27.6779Z" fill="#4D2783"/>
  <path d="M129.161 27.8251H127.696V27.6456C128.099 27.6069 128.134 27.5753 128.134 27.1601V25.8301C128.134 25.4079 128.109 25.3868 127.738 25.3446V25.1827C128.05 25.1335 128.337 25.0561 128.635 24.9224V25.6261C128.859 25.2918 129.126 24.94 129.445 24.94C129.679 24.94 129.816 25.0877 129.816 25.2461C129.816 25.3938 129.714 25.5346 129.599 25.5979C129.536 25.6366 129.483 25.6296 129.434 25.5838C129.339 25.4888 129.262 25.4255 129.147 25.4255C129.013 25.4255 128.775 25.6225 128.635 25.9498V27.1531C128.635 27.5753 128.666 27.6069 129.157 27.6456V27.8251H129.161Z" fill="#4D2783"/>
  <path d="M132.345 27.2807C131.938 27.7909 131.49 27.9035 131.286 27.9035C130.508 27.9035 130.035 27.2631 130.035 26.5277C130.035 26.0914 130.189 25.6903 130.452 25.4089C130.719 25.1098 131.073 24.9409 131.402 24.9409C131.956 24.9409 132.376 25.4229 132.376 25.9331C132.369 26.0598 132.352 26.1196 132.247 26.1442C132.121 26.1689 131.304 26.2287 130.543 26.2533C130.526 27.1118 131.048 27.4636 131.5 27.4636C131.76 27.4636 132.005 27.3546 132.24 27.1364L132.341 27.2842L132.345 27.2807ZM131.248 25.1802C130.953 25.1802 130.666 25.4581 130.578 25.9753C130.936 25.9753 131.293 25.9753 131.668 25.9577C131.784 25.9577 131.823 25.9261 131.823 25.8311C131.83 25.4898 131.605 25.1837 131.248 25.1837V25.1802Z" fill="#4D2783"/>
  <defs>
    <linearGradient id="paint0_linear_1_1684" x1="29.1648" y1="32.3429" x2="29.1648" y2="-0.139404" gradientUnits="userSpaceOnUse">
      <stop stop-color="#EF5662"/>
      <stop offset="0.28" stop-color="#F58956"/>
      <stop offset="0.6" stop-color="#F7AF50"/>
      <stop offset="1" stop-color="#FCDC3F"/>
    </linearGradient>
    <linearGradient id="paint1_linear_1_1684" x1="29.4978" y1="32.3428" x2="29.4978" y2="-0.13953" gradientUnits="userSpaceOnUse">
      <stop stop-color="#EF5662"/>
      <stop offset="0.28" stop-color="#F58956"/>
      <stop offset="0.6" stop-color="#F7AF50"/>
      <stop offset="1" stop-color="#FCDC3F"/>
    </linearGradient>
    <linearGradient id="paint2_linear_1_1684" x1="34.1361" y1="32.3431" x2="34.1361" y2="-0.139261" gradientUnits="userSpaceOnUse">
      <stop stop-color="#EF5662"/>
      <stop offset="0.28" stop-color="#F58956"/>
      <stop offset="0.6" stop-color="#F7AF50"/>
      <stop offset="1" stop-color="#FCDC3F"/>
    </linearGradient>
    <linearGradient id="paint3_linear_1_1684" x1="31.3764" y1="32.3434" x2="31.3764" y2="-0.138969" gradientUnits="userSpaceOnUse">
      <stop stop-color="#EF5662"/>
      <stop offset="0.28" stop-color="#F58956"/>
      <stop offset="0.6" stop-color="#F7AF50"/>
      <stop offset="1" stop-color="#FCDC3F"/>
    </linearGradient>
    <linearGradient id="paint4_linear_1_1684" x1="32.6764" y1="32.3428" x2="32.6764" y2="-0.139569" gradientUnits="userSpaceOnUse">
      <stop stop-color="#EF5662"/>
      <stop offset="0.28" stop-color="#F58956"/>
      <stop offset="0.6" stop-color="#F7AF50"/>
      <stop offset="1" stop-color="#FCDC3F"/>
    </linearGradient>
  </defs>
</svg>
